# Blender 5.1.2
# www.blender.org
mtllib david_decimated_lowpoly_2.mtl
o david_decimated_2
v 6.728280 5.783084 3.056006
v 6.955930 5.231949 -0.407219
v 7.013200 5.121396 -0.518850
v 6.902322 5.165609 -0.420656
v 6.133951 6.096309 -0.717299
v 4.587599 5.344223 6.684244
v 4.457348 5.337217 6.809741
v 4.415482 5.433856 7.419807
v 3.101190 3.400005 -6.680386
v 2.719765 4.241616 -6.942769
v 2.929457 3.978579 -6.501302
v 2.481062 3.924810 -7.181353
v -0.713435 -1.270266 -7.898075
v -2.596284 3.236434 4.135545
v 1.217386 -1.885557 -5.306574
v -3.283009 6.289528 6.096770
v -2.626067 6.487883 5.799239
v -5.727553 7.716379 0.297125
v 2.335957 -1.599137 -3.851100
v -3.608866 -3.547526 -7.452552
v -0.418514 7.729548 -6.532755
v -5.593938 1.611471 -2.670904
v -0.873593 10.085917 2.720719
v -2.958365 8.564516 4.109140
v 5.959143 3.256436 1.517438
v 4.467187 2.145234 3.719389
v -2.918371 9.110278 -3.721362
v -3.381856 -1.884749 0.467883
v -1.439379 6.410769 7.573215
v -0.081218 7.101866 6.717783
v -7.031315 -0.011526 -1.654380
v 2.075612 10.636874 0.993171
v 3.575923 4.087872 -4.685828
v 6.669067 6.968338 4.834212
v -2.655422 3.197792 6.139545
v -6.119927 2.866613 2.853099
v 4.706960 5.388076 6.594921
v -5.260119 5.519206 5.105913
v 2.528907 4.453094 5.411058
v 1.930764 2.693289 5.674610
v 3.855491 8.502948 6.732282
v -4.648751 7.805217 2.372482
v -4.803795 6.640014 3.821548
v 6.846626 7.185783 -2.299682
v 5.454887 4.944168 5.309489
v 6.653616 5.476991 4.327679
v -6.041388 2.674042 1.574635
v -3.428728 0.063608 2.007015
v -1.009797 3.112244 5.907037
v -0.509044 -4.615833 0.996342
v 7.546891 4.769847 1.305352
v -3.448930 -6.638322 -0.263420
v -5.746026 3.606749 -4.348828
v 2.733745 6.771309 -6.460552
v 2.116729 10.274493 -3.101163
v 2.670894 9.381241 -3.200380
v 0.732713 4.456314 6.080582
v 0.720551 5.688161 7.436245
v -5.039412 -0.192818 -0.868815
v -4.299571 -1.259930 -6.674441
v 4.440423 -1.474524 3.613296
v 1.764492 1.926088 -5.791254
v 6.204997 5.478374 6.047929
v -4.689804 -3.909859 -4.393154
v -2.995567 -1.037949 -7.653350
v -3.804930 4.213997 5.687963
v -2.075361 5.296041 6.566309
v 3.919450 5.291603 5.073452
v 5.664280 8.870452 -0.714097
v 0.650125 10.683784 1.240624
v 1.579956 -4.929603 -0.462484
v -6.106622 0.834315 0.060492
v 0.331231 -2.311733 -6.599010
v 3.296695 -5.634714 -4.971858
v -5.251222 3.137014 -5.672507
v 2.289570 10.650267 -0.643724
v -7.123594 4.984722 0.869249
v -7.231487 5.372972 -1.548817
v -5.159218 -0.743389 -5.867456
v 5.354161 4.123721 -1.066951
v -6.621000 1.980910 -1.157725
v 5.398944 1.060708 -0.824752
v -5.860205 1.753986 0.032651
v -6.436497 0.850065 -0.832737
v 3.137705 1.328738 -3.769908
v 0.829571 9.964143 -4.126262
v -1.071394 4.820207 6.375706
v 0.825613 3.526067 5.552240
v 4.539515 8.941546 4.012652
v -3.722366 -5.212615 -6.394881
v 1.471781 10.003702 3.148956
v -5.469171 2.509841 1.872128
v 4.184057 7.309145 -5.002550
v 5.795908 8.394909 3.082328
v 3.189438 8.489104 -4.599365
v 0.055804 0.338597 4.954736
v -3.799363 9.963037 0.533345
v 3.382800 -3.878145 2.468153
v -5.354652 4.588329 3.458174
v 7.070936 7.127748 3.149427
v -5.824813 6.756805 -3.140846
v -7.574254 3.645325 -0.279675
v 4.172277 -1.677314 1.295426
v -7.144632 2.375155 0.003405
v -7.130834 3.208018 0.652415
v -2.208412 8.156340 -5.859681
v 1.089347 1.779764 4.787479
v 0.125559 9.683493 4.084970
v 6.874249 6.514158 4.229357
v 2.163022 5.539317 6.709087
v 3.130926 6.372933 7.182266
v -4.465238 8.719084 -3.042908
v 6.139358 5.996155 -1.548696
v -0.692692 2.655458 4.871297
v 0.221355 -6.751338 0.210959
v 2.337694 -6.341336 -1.608889
v 2.908534 -4.890121 1.973646
v 0.791073 4.045553 6.833873
v 3.685578 3.754826 -3.283200
v 3.203766 3.162064 -3.915252
v 7.291838 5.759037 0.769466
v 3.802067 -2.772215 2.183294
v -5.747644 8.023730 1.657922
v -5.296349 6.729812 3.003668
v 1.487164 6.379116 -6.849718
v -6.040567 4.381800 -3.409177
v -6.635882 -0.696377 -0.952499
v -5.987005 -0.649121 -0.407639
v 0.046612 4.099060 6.505645
v -2.091152 1.288688 -7.065689
v 2.603426 2.066054 -6.085075
v -1.685693 2.497629 -7.173820
v 3.083450 -2.498868 3.122282
v -6.663055 1.010615 -1.390561
v 2.256949 4.940261 6.115073
v 2.836318 9.436013 4.478812
v -3.355785 1.446458 2.230965
v -4.508831 1.846641 1.603880
v 4.544367 3.285549 -2.566057
v -3.834074 4.858769 5.457513
v 5.062810 9.393733 2.455447
v -2.135212 -0.865652 -7.272648
v -6.430518 5.548788 1.591643
v 4.767939 -1.156403 3.990973
v -3.834379 2.629177 1.620171
v 1.562896 -0.178104 -5.804374
v 5.588208 8.760132 -2.848668
v 7.486322 6.936998 -0.398379
v -1.559956 8.551539 5.412344
v 4.861263 5.283811 4.216456
v -6.335614 -1.448393 -3.681156
v 7.130330 6.980044 1.899481
v 6.027238 5.979819 2.381066
v -2.374195 10.301555 -0.658912
v -6.355443 -0.520742 -4.455297
v -6.402461 0.553038 -3.459597
v 0.321426 0.662767 -7.458881
v -0.993692 -0.181948 -7.501385
v -4.904264 5.265713 4.186748
v -6.265126 6.454977 -0.174753
v -4.015754 3.824587 2.741020
v 6.633541 5.133701 -0.275370
v -5.136343 -5.526125 -5.075027
v 6.264060 4.574991 1.112037
v -5.728086 5.612397 3.506396
v -4.543019 7.752172 4.187639
v -3.678928 2.505605 2.214605
v -5.366785 1.555391 -3.801958
v 3.829696 6.806413 6.934884
v 5.824150 6.701486 6.537386
v -4.759361 -2.387191 -1.013786
v 0.835266 -3.116996 -5.809462
v 0.052568 -0.752664 -7.422365
v -5.210162 6.191999 -4.702333
v -4.627885 1.101859 0.863960
v 7.373654 4.918654 0.341307
v 3.265663 6.697419 -5.693599
v 5.729519 4.306190 0.351203
v -5.159495 -0.002929 0.174513
v -4.996167 -3.391934 -6.010784
v 3.592157 9.478134 2.429945
v 3.974954 9.631678 3.457962
v -3.060990 3.585270 -7.005493
v 3.086768 4.914871 6.599602
v -1.015763 10.529021 0.392268
v -6.591591 3.266539 -2.350950
v 5.462563 8.693425 0.840242
v -1.628999 -1.836506 -7.603774
v -2.591287 1.792170 3.888121
v -2.096116 3.013280 4.512248
v 5.073436 2.124842 1.076603
v -4.829263 3.481957 2.356651
v -5.256500 -5.814857 -3.784320
v 5.788520 5.436875 1.609458
v 1.925933 1.023628 -4.431426
v 4.492908 2.147523 -2.748118
v 4.976671 5.398253 -4.074437
v 4.081723 4.788568 -4.109389
v 4.704114 4.706012 -3.080376
v 4.218354 9.566659 -1.232760
v 5.947009 5.252872 -3.564984
v -5.017581 -1.525942 -1.027030
v 5.418649 4.960927 3.658024
v 3.019457 -0.904925 3.424777
v -4.037223 2.050786 -6.026752
v 4.622335 5.313893 -5.361771
v 6.677295 6.086256 -3.016147
v -6.596361 4.508088 2.879661
v -5.542813 -1.194347 -4.824865
v -5.729563 9.039459 0.036600
v -2.404367 9.856466 -3.405357
v 0.711657 1.052885 -6.494144
v 3.765487 2.675267 5.167992
v -0.001030 9.041079 -5.138006
v 6.264387 7.098785 -1.772696
v -2.853291 9.973263 1.925157
v -6.802211 -1.074609 -1.739109
v -1.273767 4.208620 5.876812
v 0.075534 3.450790 -7.496947
v 1.787624 2.837489 -6.697358
v 2.023770 -2.695832 3.065033
v 3.396931 4.452644 -5.307468
v 4.036800 5.221988 -6.808991
v -4.676061 1.810513 2.154221
v -1.910322 9.556405 3.426804
v 4.615249 5.118469 5.921447
v 5.130954 5.418444 6.205595
v -3.395155 3.440217 4.975640
v 5.239702 6.023757 5.924316
v 6.175684 7.493065 5.384470
v -3.743800 8.831793 2.244883
v -5.891243 7.628576 -1.612180
v 6.508067 4.086285 -1.097502
v -3.687681 7.388534 -5.747676
v -4.381639 0.637459 -6.379616
v 2.716067 2.063303 3.613550
v 5.649854 4.007154 -2.520433
v -6.922347 2.900868 1.925632
v -5.482013 -3.408022 -4.020284
v 7.029923 5.827588 1.826096
v 1.642680 5.576208 7.934286
v 0.540906 10.507433 -1.979281
v 2.800448 -3.036498 -2.740415
v 4.161004 4.800166 6.195194
v 4.616248 9.969903 0.726873
v 2.469094 10.086981 2.735495
v 5.555174 7.324625 -3.702289
v -0.718032 4.428216 7.326088
v -6.605773 5.208110 -1.872905
v 6.718160 5.288450 -0.420709
v 5.329322 2.780737 3.513878
v -5.371136 3.521132 2.901517
v -3.225675 3.123896 3.011475
v -5.314563 1.137246 1.561855
v 1.555743 -0.471319 -4.835566
v 1.191152 2.173171 -6.982710
v 6.999212 5.551046 -1.973538
v -2.256312 5.316240 -7.013856
v 4.132728 2.396752 2.145363
v 6.215849 5.239332 -1.425047
v -5.806199 -1.959438 -5.113471
v -2.820970 -2.062723 2.198043
v 2.285976 1.286757 4.162123
v -2.666213 -5.116463 -6.826660
v -0.367959 -2.712609 -7.188012
v 4.306384 7.150485 7.323011
v 1.280991 8.468304 5.928141
v 5.481914 6.534039 -3.227270
v 2.579290 2.448009 -4.976161
v 2.546061 2.120327 -3.904564
v -1.120347 -4.072206 -6.898119
v 2.761722 1.014748 -5.040470
v -6.532231 5.243614 2.401926
v -5.196351 -2.575123 -2.438247
v 0.847440 -5.028641 -7.138569
v 2.331092 2.204834 4.707093
v 3.623402 4.255903 -5.957843
v -5.880775 4.968141 2.620298
v -4.635470 1.046157 -5.062260
v 4.200915 -0.719569 2.113522
v -1.973728 4.771317 6.910578
v -2.753160 1.576448 -6.459256
v -0.675776 3.927588 5.089308
v -0.389130 5.495887 7.839274
v 4.487164 5.692875 6.312289
v 4.442297 5.319005 6.769662
v -1.874854 6.935455 6.502524
v 7.233331 5.750220 -0.147179
v 6.448885 4.653328 -2.604698
v -6.119978 -2.009749 -2.650984
v -1.752120 -3.536223 -7.520534
v 3.711392 -1.778870 3.221857
v 1.167986 -0.332497 -6.695351
v 3.944810 -3.235669 0.138397
v 2.925249 -5.743296 -4.246659
v -4.650607 3.709232 4.748868
v 2.884688 3.535972 -5.842237
v -6.362071 6.780669 1.952486
v 2.910444 3.964391 -6.167322
v 2.491089 -5.330082 -6.144424
vn 0.9939 -0.1094 -0.0170
vn 0.9959 -0.0822 -0.0376
vn 0.9955 -0.0943 0.0114
vn 0.9606 -0.1587 -0.2283
vn 0.9572 -0.1793 -0.2273
vn 0.8743 -0.1425 -0.4640
vn 0.7066 -0.5084 -0.4922
vn 0.7319 -0.5063 -0.4561
vn 0.7225 -0.5435 -0.4273
vn 0.8288 0.3413 -0.4435
vn 0.8481 0.3556 -0.3927
vn 0.8658 0.2782 -0.4160
vn 0.5191 -0.1592 -0.8397
vn 0.5822 -0.0170 -0.8128
vn 0.5938 -0.0525 -0.8029
vn -0.0550 -0.7142 0.6978
vn 0.1410 -0.7260 0.6731
vn 0.0442 -0.6113 0.7901
vn -0.9586 -0.2044 0.1983
vn -0.9090 -0.4128 0.0578
vn -0.8882 -0.4402 0.1318
vn 0.5543 -0.4154 -0.7212
vn 0.4341 -0.6133 -0.6599
vn 0.3489 -0.5961 -0.7231
vn 0.8750 0.4769 -0.0837
vn 0.7613 0.6314 0.1476
vn 0.8961 0.3125 0.3153
vn 0.5700 0.3877 -0.7244
vn 0.4395 0.3574 -0.8241
vn 0.4740 0.4065 -0.7811
vn 0.9983 -0.0584 0.0011
vn 0.9821 0.1444 -0.1211
vn 0.9885 -0.0377 0.1464
vn 0.0409 -0.8624 -0.5046
vn 0.1021 -0.6736 -0.7320
vn 0.1856 -0.9110 -0.3682
vn -0.3763 0.9261 -0.0270
vn -0.1006 0.9853 0.1381
vn -0.1719 0.9836 -0.0553
vn 0.8480 -0.4665 -0.2516
vn 0.8216 -0.3765 -0.4280
vn 0.9030 -0.3602 -0.2341
vn 0.7506 0.2155 -0.6246
vn 0.7312 0.4174 -0.5396
vn 0.8250 0.3350 -0.4552
vn 0.6941 -0.4776 -0.5386
vn 0.6309 -0.4791 -0.6103
vn 0.6731 -0.4472 -0.5891
vn 0.5410 -0.7367 0.4057
vn 0.5702 -0.6677 0.4786
vn 0.4995 -0.7638 0.4088
vn 0.7471 -0.6258 -0.2243
vn 0.7434 -0.5978 -0.2999
vn 0.8586 -0.4435 -0.2570
vn 0.9342 0.2336 -0.2695
vn 0.9245 0.2612 -0.2776
vn 0.9231 0.2905 -0.2518
vn 0.6097 -0.7891 -0.0754
vn 0.5515 -0.8300 -0.0837
vn 0.5545 -0.8202 -0.1407
vn 0.5653 -0.8201 -0.0892
vn 0.5535 -0.8254 -0.1108
vn 0.5730 -0.8101 -0.1241
vn 0.8082 -0.5393 -0.2365
vn 0.7604 -0.5811 -0.2899
vn 0.8048 -0.4554 -0.3806
vn 0.2301 -0.6927 -0.6835
vn 0.1972 -0.6262 -0.7543
vn 0.2770 -0.6675 -0.6912
vn 0.8027 -0.3088 -0.5101
vn 0.8106 -0.2534 -0.5279
vn 0.8267 -0.2982 -0.4771
vn 0.2856 -0.3817 -0.8790
vn 0.2494 -0.3667 -0.8963
vn 0.2858 -0.3241 -0.9018
vn 0.8439 0.5349 -0.0404
vn 0.8540 0.5128 0.0878
vn 0.8574 0.5108 0.0630
vn 0.8346 -0.5486 -0.0499
vn 0.8469 -0.4931 -0.1991
vn 0.8667 -0.4598 -0.1935
vn 0.5792 -0.6193 0.5301
vn 0.5938 -0.7863 0.1707
vn 0.7901 -0.4377 0.4292
vn 0.8774 -0.2789 -0.3905
vn 0.8081 -0.2838 -0.5162
vn 0.9107 -0.2205 -0.3494
vn 0.8753 -0.0884 -0.4754
vn 0.8268 -0.1580 -0.5398
vn 0.8749 -0.0792 -0.4777
vn 0.8635 -0.4747 -0.1705
vn 0.8142 -0.5558 -0.1678
vn 0.8407 -0.5015 -0.2043
vn 0.1247 -0.0877 -0.9883
vn 0.1054 -0.1220 -0.9869
vn 0.1094 -0.0404 -0.9932
vn 0.7672 0.5970 0.2347
vn 0.7976 0.5775 0.1739
vn 0.7495 0.6368 0.1811
vn 0.9056 0.1168 -0.4077
vn 0.9564 0.1935 -0.2187
vn 0.9642 0.0781 -0.2533
vn -0.1924 -0.1046 0.9757
vn -0.1679 -0.1019 0.9805
vn -0.1584 0.0236 0.9871
vn 0.9041 -0.2406 -0.3531
vn 0.9191 -0.1825 -0.3491
vn 0.9217 -0.2154 -0.3225
vn 0.9505 -0.1616 0.2654
vn 0.8965 -0.2598 0.3589
vn 0.9017 -0.3944 0.1772
vn 0.2324 -0.5211 -0.8212
vn 0.1991 -0.5215 -0.8297
vn 0.2408 -0.4996 -0.8321
vn 0.5735 -0.6630 -0.4811
vn 0.5452 -0.6763 -0.4954
vn 0.5461 -0.6490 -0.5297
vn 0.7138 0.6356 -0.2941
vn 0.7524 0.5701 -0.3300
vn 0.7064 0.6211 -0.3395
vn 0.4672 0.2456 -0.8493
vn 0.4419 0.3012 -0.8450
vn 0.5165 0.2173 -0.8282
vn 0.3845 -0.2379 -0.8920
vn 0.4427 -0.2453 -0.8625
vn 0.4270 -0.2643 -0.8647
vn 0.6790 0.0718 -0.7306
vn 0.6812 0.0906 -0.7265
vn 0.7001 0.0702 -0.7106
vn -0.0072 -0.9599 -0.2803
vn 0.0774 -0.9653 -0.2493
vn 0.0824 -0.9691 -0.2324
vn 0.4371 -0.0037 -0.8994
vn 0.3455 -0.0698 -0.9358
vn 0.4575 0.0620 -0.8871
vn 0.5193 -0.1746 -0.8365
vn 0.4946 -0.0943 -0.8640
vn 0.5705 -0.0932 -0.8160
vn 0.2147 -0.4673 -0.8576
vn 0.1962 -0.4774 -0.8565
vn 0.1811 -0.4162 -0.8911
vn -0.1543 -0.7325 -0.6631
vn -0.1302 -0.6985 -0.7037
vn -0.0633 -0.7419 -0.6676
vn 0.8101 -0.4625 -0.3603
vn 0.7986 -0.5269 -0.2910
vn 0.7776 -0.5085 -0.3699
vn 0.5330 -0.8298 0.1652
vn 0.5697 -0.7964 0.2030
vn 0.4960 -0.8457 0.1969
vn 0.9607 -0.0445 -0.2742
vn 0.9690 -0.0664 -0.2379
vn 0.9643 -0.0742 -0.2540
vn 0.6472 -0.7594 -0.0673
vn 0.5296 -0.8411 -0.1099
vn 0.6354 -0.7501 -0.1831
vn -0.0030 -0.9925 0.1220
vn -0.1535 -0.9871 0.0454
vn 0.0011 -0.9991 0.0434
vn 0.0400 -0.4796 0.8766
vn -0.0008 -0.4851 0.8744
vn -0.0013 -0.4987 0.8668
vn -0.2782 -0.4051 0.8709
vn -0.3039 -0.4364 0.8469
vn -0.2796 -0.4536 0.8462
vn 0.3846 -0.5967 0.7042
vn 0.3985 -0.5991 0.6945
vn 0.4049 -0.5614 0.7217
vn -0.3881 0.6180 -0.6837
vn 0.1512 0.7950 -0.5874
vn 0.2537 0.7276 -0.6374
vn -0.5093 -0.4848 0.7110
vn 0.0184 -0.1814 0.9832
vn -0.1018 -0.0999 0.9898
vn -0.4421 0.4941 -0.7486
vn -0.1348 0.3203 -0.9377
vn -0.5144 0.5104 -0.6891
vn -0.3160 0.5320 -0.7856
vn -0.4876 0.4756 -0.7322
vn -0.7691 0.4386 -0.4649
vn 0.7580 0.6065 -0.2400
vn 0.7890 0.5946 -0.1548
vn 0.8522 0.4698 -0.2303
vn -0.3129 -0.9474 -0.0668
vn -0.3075 -0.9515 0.0043
vn -0.3264 -0.9375 -0.1202
vn -0.2815 -0.8378 -0.4678
vn -0.2512 -0.8976 -0.3622
vn -0.3143 -0.8573 -0.4077
vn 0.1949 -0.9477 -0.2525
vn 0.1882 -0.9648 -0.1838
vn 0.1527 -0.9515 -0.2669
vn 0.8112 -0.2040 -0.5481
vn 0.8212 -0.1487 -0.5509
vn 0.8601 -0.1191 -0.4961
vn -0.5826 0.5521 -0.5964
vn -0.4107 0.6208 -0.6678
vn -0.5083 0.4937 -0.7056
vn 0.9964 0.0825 0.0176
vn 0.9865 0.1254 -0.1054
vn 0.9847 0.1604 -0.0681
vn 0.9646 -0.2592 -0.0491
vn 0.9734 -0.2193 -0.0662
vn 0.9787 -0.1996 -0.0470
vn 0.3760 -0.1211 -0.9187
vn 0.4082 -0.2701 -0.8720
vn 0.3654 -0.2868 -0.8856
vn 0.6681 -0.6855 -0.2894
vn 0.7836 -0.5587 -0.2719
vn 0.7278 -0.6427 -0.2392
vn 0.5327 -0.0545 -0.8446
vn 0.4006 0.0191 -0.9161
vn 0.4637 0.0382 -0.8852
vn 0.6713 -0.6652 -0.3269
vn 0.7420 -0.6168 -0.2627
vn 0.6395 -0.7017 -0.3139
vn 0.6112 -0.7769 -0.1512
vn 0.5234 -0.8521 -0.0004
vn 0.5196 -0.7856 -0.3360
vn -0.0086 -0.4504 0.8928
vn -0.1045 -0.4053 0.9082
vn -0.0747 -0.5196 0.8511
vn 0.0108 -0.4754 0.8797
vn -0.0204 -0.5231 0.8520
vn 0.0078 -0.5008 0.8655
vn 0.1821 -0.8025 0.5682
vn 0.1335 -0.8395 0.5268
vn 0.2572 -0.8434 0.4718
vn 0.4655 -0.0942 0.8800
vn 0.4069 -0.1714 0.8973
vn 0.5306 -0.0540 0.8459
vn 0.9697 -0.0653 0.2354
vn 0.9385 -0.0452 0.3424
vn 0.9635 -0.1407 0.2277
vn 0.9192 0.2830 0.2738
vn 0.9321 0.3166 0.1760
vn 0.8809 0.4222 0.2137
vn 0.4327 0.8735 -0.2232
vn 0.3783 0.8425 -0.3834
vn 0.3326 0.8822 -0.3333
vn 0.7338 0.4608 -0.4993
vn 0.8159 0.5204 -0.2519
vn 0.8057 0.4182 -0.4195
vn 0.8859 0.4578 0.0745
vn 0.9973 0.0710 0.0195
vn 0.9957 0.0315 -0.0875
vn 0.6464 -0.1723 0.7433
vn 0.6799 -0.2119 0.7020
vn 0.6827 -0.1809 0.7080
vn 0.5481 -0.6567 -0.5180
vn 0.5059 -0.6594 -0.5561
vn 0.5329 -0.6396 -0.5540
vn 0.5817 0.5726 -0.5776
vn 0.6881 0.5415 -0.4831
vn 0.6629 0.5310 -0.5279
vn 0.9857 0.0272 0.1664
vn 0.9877 -0.0117 0.1558
vn 0.9933 -0.0186 0.1138
vn 0.7174 0.6914 0.0856
vn 0.6791 0.7305 0.0717
vn 0.6793 0.7262 0.1061
vn 0.3080 -0.8293 -0.4663
vn 0.3351 -0.6602 -0.6722
vn 0.4198 -0.6714 -0.6107
vn 0.9451 -0.3199 0.0662
vn 0.9786 -0.1984 0.0549
vn 0.9547 -0.2691 0.1270
vn 0.6642 0.7471 -0.0281
vn 0.7201 0.6934 0.0255
vn 0.7058 0.7081 -0.0191
vn 0.7549 0.6556 -0.0186
vn 0.7129 0.6938 -0.1019
vn 0.7240 0.6887 -0.0386
vn 0.6918 0.7015 0.1713
vn 0.6791 0.6974 0.2292
vn 0.6962 0.6788 0.2333
vn 0.5277 0.8015 0.2813
vn 0.5702 0.7519 0.3310
vn 0.6065 0.7282 0.3193
vn 0.9579 0.1081 0.2661
vn 0.9733 0.1101 0.2014
vn 0.9674 0.1436 0.2085
vn 0.9593 -0.2780 0.0487
vn 0.9686 -0.2469 0.0285
vn 0.9681 -0.2481 0.0356
vn 0.6725 0.4760 -0.5668
vn 0.6477 0.4843 -0.5881
vn 0.6843 0.5022 -0.5287
vn 0.5656 -0.7823 -0.2609
vn 0.5719 -0.7559 -0.3185
vn 0.6219 -0.7304 -0.2825
vn 0.6875 -0.0044 -0.7262
vn 0.7437 0.0300 -0.6679
vn 0.7698 -0.0383 -0.6371
vn 0.9842 -0.1648 0.0649
vn 0.9943 -0.0768 -0.0735
vn 0.9841 0.1204 0.1308
vn 0.6300 0.0636 0.7740
vn 0.6790 0.0700 0.7308
vn 0.6668 0.0957 0.7391
vn 0.4908 0.7584 -0.4288
vn 0.4919 0.7748 -0.3972
vn 0.5331 0.7380 -0.4136
vn 0.7119 0.3589 -0.6037
vn 0.7250 0.3193 -0.6103
vn 0.7003 0.3510 -0.6216
vn 0.6960 0.6650 0.2707
vn 0.6274 0.6896 0.3617
vn 0.7210 0.6414 0.2623
vn 0.9564 0.2758 0.0957
vn 0.9702 0.2324 0.0687
vn 0.9599 0.2762 0.0490
vn 0.5857 -0.6630 0.4662
vn 0.4675 -0.7388 0.4855
vn 0.5912 -0.6751 0.4412
vn 0.8283 -0.3801 -0.4117
vn 0.7836 -0.4291 -0.4493
vn 0.7839 -0.3917 -0.4817
vn 0.8363 -0.1453 -0.5287
vn 0.8454 -0.1152 -0.5216
vn 0.8914 -0.1925 -0.4103
vn 0.8822 -0.3352 0.3307
vn 0.8824 -0.3585 0.3048
vn 0.9089 -0.3111 0.2777
vn 0.5156 0.2096 0.8308
vn 0.4948 0.1827 0.8496
vn 0.5387 0.1629 0.8266
vn 0.5679 0.8069 0.1626
vn 0.5147 0.8276 0.2240
vn 0.5435 0.7926 0.2764
vn 0.4798 0.8344 -0.2713
vn 0.5104 0.8256 -0.2406
vn 0.4792 0.8081 -0.3427
vn 0.8268 0.5377 0.1649
vn 0.7575 0.6481 0.0780
vn 0.8023 0.5658 0.1903
vn 0.3996 0.8706 -0.2872
vn 0.4006 0.8789 -0.2589
vn 0.4297 0.8641 -0.2620
vn 0.3274 0.9378 -0.1157
vn 0.4654 0.8802 -0.0927
vn 0.4074 0.9059 -0.1159
vn 0.1202 0.2178 -0.9686
vn 0.1628 0.2208 -0.9616
vn 0.2740 0.1309 -0.9528
vn 0.2798 0.9556 0.0919
vn 0.2170 0.9698 0.1110
vn 0.2237 0.9658 0.1309
vn 0.3167 0.8084 -0.4963
vn 0.3031 0.8171 -0.4905
vn 0.3162 0.8153 -0.4851
vn -0.3362 0.8342 0.4371
vn -0.3935 0.8259 0.4039
vn -0.3944 0.8166 0.4215
vn -0.0890 0.9915 -0.0945
vn -0.0803 0.9835 -0.1621
vn -0.1487 0.9863 -0.0717
vn -0.0161 0.9999 0.0046
vn 0.0265 0.9986 0.0458
vn 0.0910 0.9958 -0.0069
vn 0.0113 0.9892 -0.1458
vn -0.0042 0.9832 -0.1828
vn -0.0275 0.9789 -0.2024
vn 0.0939 0.9465 0.3089
vn 0.0896 0.9641 0.2500
vn 0.0591 0.9381 0.3413
vn 0.0494 0.9569 0.2863
vn 0.0181 0.9687 0.2474
vn 0.0304 0.9280 0.3714
vn 0.0305 0.9352 0.3528
vn -0.0324 0.9376 0.3463
vn -0.0287 0.9283 0.3708
vn -0.1331 0.9524 0.2743
vn -0.0154 0.9544 0.2981
vn -0.0201 0.9574 0.2880
vn -0.3212 0.9298 0.1798
vn -0.3633 0.9229 0.1276
vn -0.3401 0.9158 0.2134
vn -0.1701 0.9617 0.2151
vn -0.1824 0.9672 0.1765
vn -0.2735 0.9495 0.1536
vn 0.0261 0.9560 0.2921
vn -0.0397 0.9835 0.1765
vn -0.0820 0.9335 0.3490
vn -0.2125 0.9763 0.0398
vn -0.2800 0.9544 0.1037
vn -0.2183 0.9704 0.1030
vn -0.0013 0.9872 -0.1592
vn -0.0440 0.9858 -0.1619
vn -0.0381 0.9891 -0.1424
vn -0.4752 0.8145 -0.3328
vn -0.4254 0.8749 -0.2315
vn -0.3847 0.8609 -0.3330
vn -0.8067 0.5785 -0.1205
vn -0.8134 0.5778 -0.0669
vn -0.7961 0.6000 -0.0789
vn 0.7695 0.6386 0.0024
vn 0.8411 0.5386 -0.0501
vn 0.7790 0.5892 -0.2146
vn 0.8007 0.5985 -0.0250
vn 0.8117 0.5839 -0.0092
vn 0.8305 0.5566 -0.0209
vn 0.5934 0.6971 0.4023
vn 0.6009 0.6568 0.4555
vn 0.6210 0.6985 0.3556
vn 0.0629 0.9721 0.2258
vn 0.0339 0.9434 0.3300
vn 0.1064 0.9461 0.3058
vn 0.8101 0.4118 -0.4174
vn 0.8621 0.3874 -0.3265
vn 0.8424 0.3898 -0.3720
vn 0.1861 0.8749 0.4471
vn 0.1314 0.9401 0.3147
vn 0.1169 0.9409 0.3179
vn 0.1176 0.9323 0.3421
vn 0.1500 0.9211 0.3593
vn 0.1327 0.9367 0.3240
vn 0.6249 0.7340 0.2659
vn 0.5835 0.7738 0.2465
vn 0.6269 0.7101 0.3207
vn 0.5133 0.8210 0.2500
vn 0.4956 0.8320 0.2495
vn 0.5119 0.8151 0.2713
vn 0.7256 0.6182 0.3021
vn 0.7172 0.6819 0.1433
vn 0.6839 0.7076 0.1780
vn 0.3830 0.8674 -0.3177
vn 0.3593 0.9015 -0.2414
vn 0.4428 0.8529 -0.2766
vn 0.0118 0.8030 0.5959
vn 0.0423 0.7908 0.6106
vn 0.0506 0.8143 0.5782
vn 0.3800 0.9230 0.0601
vn 0.3551 0.9334 0.0511
vn 0.3604 0.9300 0.0717
vn 0.1042 0.9479 0.3011
vn 0.1219 0.9450 0.3036
vn 0.1050 0.9536 0.2821
vn 0.4092 0.9018 0.1391
vn 0.5244 0.8323 0.1794
vn 0.5143 0.8466 0.1368
vn 0.1334 0.9348 0.3292
vn 0.0548 0.9421 0.3310
vn 0.0139 0.9319 0.3624
vn -0.0650 0.8093 0.5838
vn -0.0888 0.8830 0.4608
vn -0.1154 0.8717 0.4763
vn -0.7362 0.1480 0.6604
vn -0.6511 0.0214 0.7587
vn -0.6122 0.1700 0.7723
vn 0.5363 0.4337 0.7240
vn 0.5119 0.5240 0.6808
vn 0.4811 0.4947 0.7237
vn 0.5287 0.6300 0.5688
vn 0.5722 0.5715 0.5882
vn 0.6024 0.5636 0.5652
vn 0.7471 0.5507 0.3722
vn 0.7428 0.4863 0.4603
vn 0.7827 0.4497 0.4303
vn 0.2936 -0.9407 0.1700
vn 0.3097 -0.9361 0.1664
vn 0.2559 -0.9418 0.2179
vn 0.1447 0.3854 0.9113
vn 0.0895 0.3868 0.9178
vn 0.0962 0.3308 0.9388
vn -0.4322 -0.3336 0.8378
vn -0.3992 -0.3391 0.8518
vn -0.3966 -0.3041 0.8662
vn 0.2683 0.1490 0.9517
vn 0.2505 0.0498 0.9668
vn 0.2811 0.1239 0.9516
vn -0.1384 0.8922 0.4299
vn -0.1546 0.8909 0.4270
vn -0.1408 0.8615 0.4878
vn -0.2852 0.3032 0.9092
vn -0.2933 0.2888 0.9114
vn -0.2393 0.2740 0.9315
vn -0.1515 -0.3926 0.9071
vn -0.1162 -0.3728 0.9206
vn -0.1464 -0.3388 0.9294
vn 0.0681 -0.8736 0.4818
vn 0.0468 -0.9090 0.4141
vn 0.1345 -0.8682 0.4777
vn -0.0754 -0.9944 0.0747
vn 0.0636 -0.9932 0.0979
vn -0.1076 -0.9902 0.0892
vn 0.3378 -0.8547 -0.3942
vn 0.3133 -0.8425 -0.4381
vn 0.3747 -0.7946 -0.4778
vn -0.0321 -0.9171 -0.3974
vn -0.0742 -0.9341 -0.3491
vn -0.0890 -0.9025 -0.4215
vn 0.9764 -0.2162 -0.0011
vn 0.9804 -0.1886 -0.0565
vn 0.9786 -0.2014 0.0420
vn 0.8982 -0.1611 0.4091
vn 0.8969 -0.1214 0.4252
vn 0.8849 -0.1675 0.4346
vn 0.6901 0.7175 -0.0949
vn 0.5276 0.8469 0.0656
vn 0.7283 0.6838 -0.0450
vn 0.0647 -0.8428 0.5343
vn 0.0863 -0.8222 0.5626
vn 0.0560 -0.8388 0.5416
vn 0.1140 -0.9225 -0.3688
vn 0.1929 -0.9454 -0.2628
vn 0.1023 -0.9305 -0.3518
vn 0.4801 -0.8655 0.1432
vn 0.4760 -0.8721 0.1135
vn 0.5763 -0.8110 0.1013
vn 0.9544 -0.1389 0.2641
vn 0.9711 -0.0761 0.2264
vn 0.9529 -0.0896 0.2898
vn 0.1801 -0.3111 0.9331
vn 0.1406 -0.3199 0.9370
vn 0.1430 -0.3608 0.9216
vn -0.6162 0.3862 -0.6864
vn -0.6316 0.3758 -0.6782
vn -0.7215 0.3728 -0.5835
vn -0.1527 -0.5748 0.8039
vn -0.0912 -0.5948 0.7987
vn -0.0891 -0.5527 0.8286
vn -0.3746 -0.7304 -0.5711
vn -0.3860 -0.7790 -0.4942
vn -0.4440 -0.7544 -0.4836
vn 0.1258 -0.6465 0.7524
vn 0.0239 -0.8783 0.4775
vn 0.3216 -0.8891 0.3258
vn 0.1982 -0.8303 0.5209
vn 0.0710 -0.9826 0.1719
vn 0.2472 -0.8284 0.5026
vn 0.4591 -0.8708 -0.1759
vn 0.4508 -0.8619 -0.2323
vn 0.5675 -0.7971 -0.2065
vn 0.6836 -0.0581 0.7275
vn 0.6471 -0.1820 0.7404
vn 0.6938 -0.1111 0.7115
vn 0.6604 -0.0601 0.7485
vn 0.6703 -0.0853 0.7372
vn 0.6783 -0.0936 0.7288
vn 0.6680 0.3767 0.6417
vn 0.6319 0.3891 0.6703
vn 0.6752 0.3558 0.6462
vn 0.3735 -0.2910 0.8808
vn 0.3880 -0.3197 0.8644
vn 0.4136 -0.3116 0.8555
vn 0.5073 -0.6035 0.6152
vn 0.6156 -0.6743 0.4078
vn 0.5133 -0.5969 0.6166
vn 0.8205 -0.5696 0.0476
vn 0.4113 -0.9079 -0.0812
vn 0.9247 -0.3778 0.0464
vn 0.8027 0.2957 0.5180
vn 0.8633 0.2489 0.4391
vn 0.8415 0.3161 0.4381
vn 0.8938 0.1235 0.4311
vn 0.8697 0.0886 0.4856
vn 0.9144 0.0998 0.3924
vn -0.8140 0.4271 0.3936
vn -0.8999 0.2446 0.3610
vn -0.8272 0.2618 0.4972
vn 0.6802 0.1966 0.7062
vn 0.6406 0.2809 0.7146
vn 0.5851 0.1891 0.7886
vn 0.1107 -0.7176 0.6876
vn 0.0463 -0.5964 0.8014
vn -0.0205 -0.7717 0.6357
vn 0.1185 -0.8624 0.4922
vn 0.0859 -0.7920 0.6045
vn 0.0725 -0.7914 0.6070
vn 0.8391 0.3110 0.4463
vn 0.8733 0.1404 0.4664
vn 0.8753 0.1864 0.4463
vn 0.1045 0.3473 -0.9319
vn 0.3455 0.4923 -0.7989
vn 0.2997 0.3152 -0.9004
vn -0.0237 -0.5447 -0.8383
vn -0.1009 -0.4791 -0.8719
vn 0.0189 -0.5095 -0.8603
vn 0.5171 0.6386 -0.5698
vn 0.5469 0.6528 -0.5242
vn 0.5657 0.5971 -0.5687
vn 0.2755 0.5154 -0.8115
vn 0.2911 0.4817 -0.8266
vn 0.2141 0.5347 -0.8175
vn -0.3018 -0.7218 -0.6228
vn -0.2933 -0.8552 -0.4273
vn -0.3995 -0.6890 -0.6047
vn -0.9768 0.0863 -0.1959
vn -0.9558 -0.0409 -0.2911
vn -0.9931 -0.0755 0.0896
vn -0.3391 0.8495 -0.4042
vn -0.5983 0.7993 -0.0564
vn -0.2802 0.9417 -0.1864
vn 0.7499 -0.6474 0.1361
vn 0.7828 -0.6202 0.0502
vn 0.8110 -0.5558 0.1825
vn -0.5712 0.7761 -0.2673
vn -0.3878 0.9204 -0.0500
vn -0.3185 0.8604 -0.3979
vn 0.1810 -0.9630 0.1995
vn 0.2280 -0.9692 0.0935
vn 0.2948 -0.8885 0.3517
vn 0.4461 -0.8548 0.2652
vn 0.2865 -0.9064 0.3104
vn 0.4338 -0.8953 0.1015
vn 0.4487 -0.7126 0.5393
vn 0.0076 -0.9726 0.2324
vn 0.8023 -0.5598 -0.2070
vn 0.5383 -0.8115 0.2272
vn 0.5038 -0.6638 0.5528
vn 0.4201 -0.8611 0.2865
vn 0.6141 -0.7892 -0.0079
vn 0.6988 -0.6647 0.2643
vn 0.6052 -0.5962 0.5275
vn 0.9888 0.0438 0.1425
vn 0.9911 0.1316 -0.0192
vn 0.9680 0.1425 0.2064
vn 0.9901 -0.0972 0.1017
vn 0.9756 -0.0221 -0.2184
vn 0.9872 0.1398 0.0767
vn -0.3163 -0.9404 -0.1250
vn -0.2899 -0.9448 -0.1526
vn -0.2881 -0.9505 -0.1163
vn -0.1027 -0.9888 -0.1081
vn -0.1353 -0.9882 -0.0717
vn -0.1202 -0.9846 -0.1271
vn 0.4446 -0.6580 -0.6078
vn 0.4284 -0.6324 -0.6454
vn 0.4517 -0.6228 -0.6388
vn -0.0273 -0.6301 -0.7760
vn 0.1295 -0.6726 -0.7286
vn -0.0219 -0.6457 -0.7632
vn 0.1758 -0.8390 -0.5149
vn -0.1918 -0.7769 -0.5997
vn 0.2608 -0.7584 -0.5973
vn 0.3954 -0.8563 -0.3324
vn 0.5244 -0.7019 -0.4821
vn 0.6681 -0.7078 -0.2292
vn -0.5244 -0.3979 0.7528
vn -0.3805 -0.3380 0.8608
vn -0.4659 -0.2872 0.8370
vn -0.1105 -0.9738 0.1989
vn -0.0747 -0.9569 0.2805
vn -0.2296 -0.9506 0.2091
vn 0.1311 -0.4465 0.8851
vn 0.1610 -0.4891 0.8572
vn 0.1860 -0.4551 0.8708
vn 0.2899 -0.8353 -0.4671
vn 0.2352 -0.8475 -0.4759
vn 0.2797 -0.8235 -0.4935
vn 0.5691 0.7930 0.2173
vn 0.5465 0.8143 0.1954
vn 0.5507 0.8057 0.2182
vn 0.6726 -0.6443 0.3641
vn 0.7115 -0.6366 0.2976
vn 0.7150 -0.6206 0.3219
vn 0.5952 -0.5161 0.6159
vn 0.5970 -0.5339 0.5988
vn 0.6192 -0.4977 0.6074
vn -0.3735 -0.6753 0.6359
vn -0.4016 -0.6735 0.6206
vn -0.3821 -0.6923 0.6121
vn 0.6053 -0.6312 0.4849
vn 0.5795 -0.6211 0.5276
vn 0.4591 -0.6366 0.6197
vn 0.2312 -0.9149 0.3311
vn 0.0994 -0.9852 0.1395
vn 0.2663 -0.9468 0.1807
vn 0.1823 0.0641 0.9812
vn 0.2666 0.0248 0.9635
vn 0.3505 0.0871 0.9325
vn -0.9362 -0.2216 0.2727
vn -0.9273 -0.2567 0.2723
vn -0.9299 -0.2403 0.2785
vn -0.7945 -0.3994 0.4574
vn -0.7866 -0.3947 0.4748
vn -0.7923 -0.3808 0.4768
vn -0.6749 -0.3607 0.6437
vn -0.6700 -0.3669 0.6454
vn -0.6538 -0.3511 0.6703
vn -0.7168 -0.0790 0.6928
vn -0.7133 -0.1014 0.6935
vn -0.7094 -0.1008 0.6976
vn -0.6874 -0.7120 0.1435
vn -0.6904 -0.7062 0.1569
vn -0.6997 -0.6977 0.1538
vn 0.9589 -0.2654 -0.1008
vn 0.9795 -0.1920 -0.0604
vn 0.9488 -0.3156 0.0133
vn -0.3727 -0.7775 0.5065
vn -0.3525 -0.7739 0.5262
vn -0.3799 -0.7680 0.5156
vn -0.3992 -0.7911 0.4634
vn -0.3655 -0.8092 0.4601
vn -0.3463 -0.7993 0.4912
vn -0.4838 -0.0368 0.8744
vn -0.4181 -0.1060 0.9022
vn -0.3623 -0.1168 0.9247
vn -0.6381 -0.7175 0.2793
vn -0.5459 -0.7823 0.3001
vn -0.5951 -0.7329 0.3297
vn -0.8049 -0.0721 -0.5890
vn -0.8221 -0.2436 -0.5146
vn -0.9291 0.0277 -0.3688
vn -0.3493 -0.1492 0.9251
vn -0.2897 -0.1620 0.9433
vn -0.3012 -0.1271 0.9450
vn -0.2705 -0.5955 0.7565
vn -0.2621 -0.5978 0.7576
vn -0.2624 -0.5963 0.7587
vn -0.5007 -0.3224 0.8033
vn -0.4994 -0.3143 0.8074
vn -0.5025 -0.3214 0.8026
vn 0.0758 0.0718 0.9945
vn 0.0714 0.0537 0.9960
vn 0.0864 0.0455 0.9952
vn 0.2473 -0.5030 0.8281
vn 0.1899 -0.4884 0.8517
vn 0.1544 -0.5416 0.8263
vn 0.8876 -0.2697 0.3735
vn 0.9222 -0.2731 0.2738
vn 0.9199 -0.0675 0.3863
vn 0.2946 -0.8125 0.5031
vn 0.6111 -0.4046 0.6804
vn 0.1170 -0.6912 0.7131
vn -0.2446 -0.5639 0.7888
vn -0.2210 -0.5593 0.7990
vn -0.2444 -0.5487 0.7995
vn 0.1393 -0.8768 0.4603
vn 0.1447 -0.8559 0.4966
vn 0.0335 -0.8837 0.4668
vn -0.0290 0.1238 0.9919
vn 0.0133 0.1489 0.9888
vn 0.0077 0.1694 0.9855
vn 0.1461 -0.8569 -0.4944
vn 0.1716 -0.8543 -0.4906
vn 0.1496 -0.8715 -0.4670
vn 0.1835 -0.6888 0.7014
vn -0.0326 -0.8843 0.4658
vn 0.2378 -0.7555 0.6104
vn 0.6932 -0.3138 0.6489
vn 0.5872 -0.2853 0.7575
vn 0.5039 -0.4031 0.7639
vn 0.3150 -0.4510 0.8351
vn 0.3832 -0.3936 0.8356
vn 0.2917 -0.4475 0.8454
vn -0.3890 -0.3902 0.8345
vn -0.3953 -0.4867 0.7790
vn -0.2750 -0.4689 0.8394
vn -0.3093 0.7476 0.5878
vn -0.1950 0.8041 0.5617
vn -0.3419 0.7952 0.5008
vn -0.6873 -0.2823 0.6693
vn -0.6446 -0.3253 0.6918
vn -0.6776 -0.2694 0.6843
vn -0.7471 0.6242 0.2286
vn -0.8247 0.4300 0.3674
vn -0.7079 0.6487 0.2796
vn -0.3602 -0.3013 0.8829
vn -0.2933 -0.2921 0.9103
vn -0.3405 -0.2502 0.9064
vn -0.5631 0.7123 0.4191
vn -0.5050 0.7058 0.4968
vn -0.3835 0.7876 0.4824
vn 0.4741 -0.5068 0.7200
vn 0.4773 -0.5108 0.7150
vn 0.5263 -0.4109 0.7444
vn -0.7725 0.1846 0.6076
vn -0.7990 0.2266 0.5570
vn -0.7953 0.1262 0.5929
vn -0.3101 -0.6963 0.6473
vn -0.2694 -0.7342 0.6232
vn -0.2411 -0.7257 0.6443
vn -0.7437 0.1145 0.6587
vn -0.7212 0.0658 0.6896
vn -0.6764 0.2376 0.6972
vn -0.4606 -0.8851 0.0661
vn -0.4230 -0.9030 0.0748
vn -0.4402 -0.8875 0.1361
vn -0.0432 0.2296 -0.9723
vn -0.0178 0.2108 -0.9774
vn -0.0288 0.1448 -0.9890
vn 0.1071 0.1892 -0.9761
vn 0.0546 0.2303 -0.9716
vn 0.0896 0.2330 -0.9683
vn -0.1292 0.0480 -0.9905
vn -0.1112 0.1200 -0.9865
vn -0.0836 0.0798 -0.9933
vn 0.4586 0.2762 -0.8446
vn 0.4386 0.3025 -0.8462
vn 0.4565 0.3212 -0.8297
vn 0.0249 0.0627 -0.9977
vn 0.0492 0.0721 -0.9962
vn 0.0528 0.0642 -0.9965
vn 0.1635 0.3502 -0.9223
vn 0.1540 0.3670 -0.9174
vn 0.1833 0.3511 -0.9182
vn 0.6343 0.6726 -0.3811
vn 0.6834 0.6287 -0.3711
vn 0.6351 0.6434 -0.4275
vn 0.4975 0.4199 -0.7591
vn 0.4703 0.4879 -0.7354
vn 0.5411 0.4307 -0.7223
vn 0.2610 0.8765 -0.4045
vn 0.2411 0.8543 -0.4605
vn 0.2130 0.8584 -0.4666
vn 0.7878 0.3512 -0.5060
vn 0.7829 0.3313 -0.5265
vn 0.7766 0.3602 -0.5169
vn -0.0110 0.7364 -0.6765
vn -0.0879 0.7195 -0.6889
vn -0.1066 0.7861 -0.6089
vn -0.2338 0.3586 -0.9038
vn -0.3238 0.3676 -0.8718
vn -0.2100 0.4434 -0.8714
vn -0.2096 0.3109 -0.9271
vn -0.2923 0.3322 -0.8968
vn -0.3034 0.4489 -0.8405
vn -0.5390 0.1699 -0.8250
vn -0.5402 0.1928 -0.8191
vn -0.5332 0.1875 -0.8250
vn -0.6615 0.2572 -0.7044
vn -0.6652 0.2334 -0.7092
vn -0.6747 0.2239 -0.7033
vn -0.9034 0.1532 -0.4006
vn -0.9025 0.1207 -0.4135
vn -0.9220 0.1293 -0.3650
vn -0.7146 0.5246 -0.4628
vn -0.6938 0.5231 -0.4950
vn -0.7395 0.4759 -0.4762
vn -0.7509 0.5691 -0.3351
vn -0.7593 0.5430 -0.3586
vn -0.8135 0.4844 -0.3217
vn -0.9978 -0.0565 0.0347
vn -0.9929 0.0330 0.1144
vn -0.9974 0.0199 0.0687
vn -0.7632 0.5393 -0.3559
vn -0.7694 0.5162 -0.3762
vn -0.7807 0.5134 -0.3563
vn -0.3227 0.9104 -0.2589
vn -0.3756 0.8839 -0.2785
vn -0.3725 0.9025 -0.2161
vn -0.4628 0.7556 -0.4636
vn -0.4154 0.7726 -0.4801
vn -0.4284 0.7538 -0.4982
vn -0.4092 0.7784 -0.4761
vn -0.3853 0.7647 -0.5165
vn -0.5485 0.6470 -0.5297
vn -0.6226 0.6444 -0.4441
vn -0.5806 0.6559 -0.4824
vn -0.6160 0.5975 -0.5133
vn -0.2815 0.7432 -0.6069
vn -0.1376 0.8554 -0.4993
vn -0.1489 0.7965 -0.5861
vn -0.0945 0.7831 -0.6147
vn -0.1148 0.7719 -0.6253
vn -0.1410 0.8311 -0.5380
vn -0.0887 0.9608 -0.2626
vn -0.1003 0.9665 -0.2364
vn -0.0455 0.9642 -0.2612
vn -0.7445 0.5040 -0.4378
vn -0.7172 0.5249 -0.4583
vn -0.7213 0.5096 -0.4690
vn 0.3104 0.5432 -0.7801
vn 0.3063 0.6698 -0.6765
vn 0.3465 0.6328 -0.6924
vn 0.2193 0.5993 -0.7699
vn 0.2414 0.6396 -0.7298
vn 0.2566 0.5969 -0.7601
vn -0.0322 0.7437 -0.6677
vn -0.0000 0.7491 -0.6625
vn -0.0263 0.7191 -0.6944
vn 0.2291 0.6173 -0.7526
vn 0.3479 0.6426 -0.6827
vn 0.2488 0.5768 -0.7781
vn -0.4250 0.1344 -0.8952
vn -0.5847 0.1023 -0.8048
vn -0.4610 0.2438 -0.8533
vn -0.1402 -0.0510 -0.9888
vn -0.2065 -0.0612 -0.9765
vn -0.1615 -0.0386 -0.9861
vn -0.3344 -0.3064 -0.8912
vn -0.4126 -0.2542 -0.8747
vn -0.3072 -0.2586 -0.9158
vn -0.4585 -0.2498 -0.8528
vn -0.5008 -0.2801 -0.8189
vn -0.4651 -0.2344 -0.8536
vn -0.9231 -0.2877 -0.2552
vn -0.9392 -0.2438 -0.2419
vn -0.9393 -0.2100 -0.2715
vn -0.9093 0.1361 -0.3932
vn -0.9114 0.1291 -0.3907
vn -0.9121 0.1404 -0.3852
vn -0.8791 0.2648 -0.3964
vn -0.8934 0.1284 -0.4305
vn -0.9108 0.1284 -0.3923
vn -0.9450 -0.2637 -0.1934
vn -0.9709 -0.2107 -0.1137
vn -0.9715 -0.1861 -0.1470
vn -0.7061 -0.3524 -0.6142
vn -0.6947 -0.2756 -0.6644
vn -0.6408 -0.3174 -0.6990
vn -0.9273 -0.2043 -0.3136
vn -0.9441 -0.3086 -0.1157
vn -0.9645 -0.1898 -0.1838
vn -0.7749 0.2511 -0.5801
vn -0.7566 0.0758 -0.6494
vn -0.8105 0.1728 -0.5597
vn -0.7820 -0.3750 -0.4978
vn -0.7922 -0.4165 -0.4460
vn -0.8034 -0.3955 -0.4451
vn -0.8873 0.0062 -0.4611
vn -0.9233 0.0895 -0.3736
vn -0.9057 0.1428 -0.3991
vn -0.9121 -0.0627 0.4052
vn -0.8867 -0.0531 0.4593
vn -0.9138 -0.0010 0.4061
vn -0.9666 -0.2032 0.1564
vn -0.9708 -0.0086 0.2397
vn -0.9900 0.0099 0.1405
vn -0.1969 -0.9804 -0.0056
vn -0.3396 -0.9247 -0.1718
vn -0.3102 -0.9275 -0.2085
vn -0.9581 0.0164 0.2861
vn -0.9614 0.0559 0.2695
vn -0.9662 0.0413 0.2543
vn -0.9923 0.0094 -0.1238
vn -0.9934 -0.0096 -0.1147
vn -0.9944 -0.0009 -0.1055
vn -0.0458 0.5615 0.8262
vn -0.1097 0.5190 0.8477
vn -0.0343 0.5040 0.8630
vn -0.7437 -0.2219 0.6306
vn -0.7410 -0.2270 0.6320
vn -0.7021 -0.2244 0.6758
vn -0.0230 -0.0059 0.9997
vn -0.1045 -0.0034 0.9945
vn -0.0120 -0.0897 0.9959
vn -0.3693 -0.9197 0.1335
vn -0.2997 -0.9523 0.0566
vn -0.1654 -0.9620 0.2171
vn 0.5139 -0.6447 0.5659
vn 0.5756 -0.5899 0.5664
vn 0.4302 -0.5505 0.7154
vn 0.3927 -0.6495 0.6511
vn 0.5423 -0.6330 0.5525
vn 0.5279 -0.6267 0.5731
vn -0.0207 -0.9706 0.2397
vn 0.2558 -0.9194 0.2987
vn 0.2353 -0.9175 0.3206
vn -0.5870 -0.4500 0.6730
vn -0.6148 -0.3335 0.7147
vn -0.6101 -0.4204 0.6716
vn -0.7639 -0.1970 0.6145
vn -0.7751 -0.2610 0.5754
vn -0.6303 -0.1198 0.7670
vn -0.9003 -0.1219 0.4180
vn -0.8854 -0.1730 0.4314
vn -0.8875 -0.1283 0.4426
vn -0.5476 -0.1292 0.8267
vn -0.5128 -0.1550 0.8444
vn -0.4921 -0.1343 0.8601
vn -0.7194 0.6112 0.3299
vn -0.6666 0.6665 0.3336
vn -0.7645 0.5949 0.2483
vn -0.2385 -0.4582 0.8562
vn -0.2111 -0.4099 0.8874
vn -0.3185 -0.3152 0.8940
vn -0.0130 -0.1079 0.9941
vn 0.0336 -0.1614 0.9863
vn 0.0546 -0.0849 0.9949
vn 0.6391 -0.7056 -0.3061
vn 0.5510 -0.7810 -0.2939
vn 0.5117 -0.7520 -0.4155
vn 0.7545 -0.6343 0.1685
vn 0.7448 -0.6346 0.2064
vn 0.7348 -0.6527 0.1846
vn -0.4599 -0.1261 0.8790
vn -0.4710 -0.2579 0.8436
vn -0.3616 -0.1534 0.9196
vn 0.3046 0.9513 0.0465
vn 0.1944 0.9719 0.1331
vn 0.2462 0.9422 0.2273
vn -0.6382 -0.3712 0.6745
vn -0.3517 -0.5864 0.7297
vn -0.5099 -0.2283 0.8294
vn -0.3999 -0.3573 0.8440
vn -0.4171 -0.3504 0.8386
vn -0.4045 -0.3622 0.8398
vn -0.8967 0.0471 0.4402
vn -0.8687 -0.0914 0.4869
vn -0.8632 -0.0898 0.4969
vn -0.6564 -0.1456 0.7403
vn -0.5935 -0.2160 0.7753
vn -0.6007 -0.0533 0.7977
vn 0.4141 0.8432 -0.3430
vn 0.4623 0.8119 -0.3566
vn 0.4041 0.8098 -0.4254
vn 0.5014 0.3632 -0.7853
vn 0.4949 0.4111 -0.7656
vn 0.5545 0.4028 -0.7282
vn 0.6592 -0.2324 0.7152
vn 0.6609 -0.2262 0.7155
vn 0.6497 -0.2218 0.7271
vn 0.5559 -0.1013 0.8251
vn 0.5256 -0.1394 0.8392
vn 0.5696 -0.1318 0.8113
vn -0.6598 0.4425 -0.6073
vn -0.6609 0.4296 -0.6153
vn -0.6690 0.4430 -0.5968
vn -0.9611 0.2757 -0.0172
vn -0.9574 0.2866 -0.0360
vn -0.9623 0.2708 -0.0264
vn -0.9402 -0.1494 0.3061
vn -0.9456 -0.1014 0.3093
vn -0.9468 -0.1095 0.3027
vn -0.8872 -0.2102 0.4108
vn -0.8850 -0.1994 0.4207
vn -0.8942 -0.1997 0.4007
vn -0.3190 -0.8006 0.5072
vn -0.2766 -0.8868 0.3702
vn -0.2796 -0.8297 0.4831
vn -0.5164 -0.8096 0.2791
vn -0.5320 -0.7712 0.3495
vn -0.5508 -0.7905 0.2680
vn -0.5513 -0.6941 0.4629
vn -0.5302 -0.7073 0.4676
vn -0.5592 -0.6387 0.5285
vn -0.9220 0.1596 -0.3529
vn -0.9226 0.1626 -0.3497
vn -0.9187 0.1760 -0.3537
vn -0.6509 -0.7465 -0.1378
vn -0.4768 -0.8479 -0.2319
vn -0.5703 -0.8189 -0.0648
vn -0.9185 -0.3946 -0.0267
vn -0.8977 -0.4401 -0.0209
vn -0.9226 -0.3852 -0.0195
vn -0.9000 -0.3755 -0.2216
vn -0.9072 -0.3703 -0.1995
vn -0.9023 -0.3554 -0.2438
vn -0.9112 -0.3768 -0.1666
vn -0.9104 -0.3573 -0.2088
vn -0.8847 -0.3885 -0.2577
vn -0.7196 0.0399 -0.6933
vn -0.7207 0.0216 -0.6929
vn -0.7256 0.0190 -0.6879
vn -0.7038 -0.0780 -0.7061
vn -0.7420 0.0285 -0.6698
vn -0.6691 0.0937 -0.7373
vn 0.0068 -0.0463 -0.9989
vn 0.0189 -0.0580 -0.9981
vn -0.0725 -0.0361 -0.9967
vn -0.0317 -0.1694 -0.9850
vn -0.0505 -0.0527 -0.9973
vn -0.0328 -0.0699 -0.9970
vn -0.7925 -0.1865 -0.5807
vn -0.0837 0.0563 -0.9949
vn 0.6875 -0.1385 -0.7129
vn 0.4279 -0.3893 -0.8157
vn 0.4770 -0.3975 -0.7839
vn 0.3873 -0.4519 -0.8036
vn 0.6404 -0.4285 -0.6374
vn 0.5998 -0.4713 -0.6467
vn 0.5503 -0.4742 -0.6873
vn 0.1830 0.5608 -0.8075
vn 0.1738 0.5605 -0.8097
vn 0.1522 0.5895 -0.7933
vn 0.5160 0.4824 -0.7078
vn 0.4960 0.5092 -0.7033
vn 0.5196 0.5030 -0.6907
vn 0.7991 0.0159 -0.6010
vn 0.7935 -0.0001 -0.6086
vn 0.7860 -0.0026 -0.6183
vn 0.7150 0.1652 -0.6793
vn 0.7134 0.1758 -0.6783
vn 0.7190 0.1633 -0.6755
vn 0.7267 0.6064 -0.3228
vn 0.7338 0.5869 -0.3422
vn 0.7214 0.5981 -0.3491
vn 0.7974 0.0252 -0.6029
vn 0.7977 -0.0099 -0.6030
vn 0.7727 0.0180 -0.6345
vn 0.8260 -0.2895 -0.4836
vn 0.8873 -0.2066 -0.4123
vn 0.8284 -0.3087 -0.4673
vn 0.8263 -0.0322 -0.5623
vn 0.8558 0.0800 -0.5111
vn 0.8668 -0.0277 -0.4979
vn 0.6265 -0.2843 -0.7258
vn 0.6340 -0.1508 -0.7585
vn 0.7122 -0.2265 -0.6644
vn 0.8589 -0.3880 -0.3342
vn 0.8834 -0.3434 -0.3190
vn 0.8730 -0.4268 -0.2361
vn 0.5237 -0.3424 -0.7801
vn 0.6199 -0.1624 -0.7677
vn 0.6278 -0.3644 -0.6878
vn 0.7175 -0.2127 -0.6633
vn 0.6438 -0.4567 -0.6139
vn 0.3347 -0.3804 -0.8621
vn 0.6681 0.0359 -0.7432
vn 0.2496 0.4060 -0.8791
vn 0.2660 0.4478 -0.8537
vn -0.4004 0.2358 -0.8855
vn -0.4235 0.0628 -0.9037
vn -0.4602 0.2180 -0.8606
vn -0.2410 0.0814 -0.9671
vn -0.2681 0.0932 -0.9589
vn -0.2471 0.1366 -0.9593
vn 0.0480 -0.0291 -0.9984
vn 0.0988 -0.0153 -0.9950
vn 0.0482 -0.0428 -0.9979
vn 0.5663 -0.1795 -0.8044
vn 0.5442 -0.1296 -0.8289
vn 0.5808 -0.1191 -0.8053
vn 0.8080 0.3632 -0.4639
vn 0.8193 0.3355 -0.4650
vn 0.8005 0.3201 -0.5067
vn -0.0973 0.2154 -0.9717
vn -0.0981 0.2076 -0.9733
vn -0.1211 0.2085 -0.9705
vn 0.1432 0.8844 -0.4442
vn 0.1606 0.8920 -0.4226
vn 0.1849 0.8861 -0.4250
vn 0.2421 -0.1872 -0.9520
vn 0.1834 -0.1479 -0.9718
vn 0.1950 -0.1408 -0.9707
vn 0.0156 -0.3963 -0.9180
vn 0.0703 -0.4151 -0.9071
vn -0.0108 -0.4129 -0.9107
vn 0.1194 -0.4016 -0.9080
vn 0.2270 -0.5063 -0.8319
vn 0.1453 -0.5462 -0.8249
vn -0.1640 0.0668 -0.9842
vn -0.1129 0.1241 -0.9858
vn -0.1216 0.0086 -0.9925
vn -0.0910 -0.2949 -0.9512
vn 0.0316 -0.3573 -0.9335
vn 0.0090 -0.4152 -0.9097
vn -0.5803 0.1814 -0.7939
vn -0.6432 0.1230 -0.7558
vn -0.6372 0.1870 -0.7476
vn -0.2647 -0.2690 -0.9261
vn -0.4166 -0.3570 -0.8361
vn -0.4282 -0.2587 -0.8659
vn -0.1910 0.2993 -0.9348
vn -0.0356 0.1486 -0.9883
vn -0.2795 0.2575 -0.9250
vn 0.6253 -0.7249 -0.2889
vn 0.6138 -0.7330 -0.2933
vn 0.6264 -0.7178 -0.3039
vn 0.8843 -0.4595 0.0827
vn 0.8915 -0.4463 0.0779
vn 0.8801 -0.4647 0.0973
vn 0.7389 -0.2487 -0.6263
vn 0.7428 -0.2312 -0.6283
vn 0.7463 -0.2378 -0.6217
vn 0.6488 -0.1647 -0.7430
vn 0.6617 -0.1431 -0.7360
vn 0.6561 -0.1577 -0.7380
vn 0.8082 -0.2592 -0.5288
vn 0.8113 -0.2712 -0.5180
vn 0.8054 -0.2649 -0.5303
vn 0.8512 -0.3779 -0.3641
vn 0.8529 -0.3686 -0.3698
vn 0.8617 -0.3639 -0.3535
vn 0.9446 -0.2698 0.1871
vn 0.9403 -0.2815 0.1912
vn 0.9426 -0.2788 0.1836
vn 0.9077 0.0283 -0.4187
vn 0.9121 0.0237 -0.4092
vn 0.9094 0.0102 -0.4159
vn 0.9370 -0.1976 -0.2882
vn 0.8841 -0.0363 -0.4659
vn 0.8843 -0.0149 -0.4666
vn 0.9874 0.0183 0.1570
vn 0.9894 0.0333 0.1411
vn 0.9873 0.0339 0.1553
vn 0.9443 -0.3069 0.1191
vn 0.9684 -0.2293 0.0983
vn 0.9665 -0.2255 0.1228
vn 0.9589 -0.1583 0.2354
vn 0.9657 -0.1619 0.2031
vn 0.9640 -0.0955 0.2482
vn 0.9411 -0.2745 0.1974
vn 0.9534 -0.2121 0.2145
vn 0.9469 -0.2101 0.2433
vn 0.5366 -0.7241 -0.4333
vn 0.5053 -0.6882 -0.5206
vn 0.5407 -0.7119 -0.4481
vn 0.0490 -0.1937 0.9798
vn -0.0355 -0.2177 0.9754
vn 0.0301 -0.2444 0.9692
vn 0.5848 -0.5744 0.5728
vn 0.3246 -0.3757 0.8680
vn 0.5554 -0.6122 0.5628
vn 0.9355 -0.3210 0.1473
vn 0.9333 -0.3314 0.1382
vn 0.9435 -0.3086 0.1208
vn -0.0917 -0.9935 0.0668
vn -0.1060 -0.9914 0.0772
vn -0.1051 -0.9921 0.0680
vn -0.2505 -0.5793 0.7757
vn -0.2594 -0.5777 0.7739
vn -0.2607 -0.5858 0.7674
vn 0.3859 -0.1833 0.9041
vn 0.4810 -0.2696 0.8343
vn 0.4022 -0.1727 0.8991
vn -0.0695 -0.0851 0.9939
vn -0.0372 -0.1526 0.9876
vn -0.0558 -0.0663 0.9962
vn 0.0185 -0.9351 0.3540
vn -0.0028 -0.9490 0.3153
vn 0.1050 -0.9202 0.3772
vn -0.3139 0.0204 0.9492
vn -0.3000 0.0522 0.9525
vn -0.3281 0.1306 0.9356
vn 0.9858 -0.0434 0.1620
vn -0.6129 -0.3533 0.7068
vn -0.7684 -0.3433 0.5400
vn -0.7110 -0.2891 0.6410
vn -0.7783 -0.3697 0.5075
vn -0.2063 -0.9720 0.1130
vn -0.1348 -0.9835 0.1208
vn -0.1972 -0.9700 0.1419
vn 0.5840 -0.7540 -0.3006
vn 0.5850 -0.7478 -0.3139
vn 0.5902 -0.7475 -0.3047
vn 0.9681 0.1524 -0.1990
vn 0.9669 0.1475 -0.2082
vn 0.9662 0.1621 -0.2003
vn 0.8596 0.0485 0.5086
vn 0.8625 0.0518 0.5033
vn 0.8620 0.0591 0.5035
vn 0.5614 0.7219 0.4045
vn 0.6080 0.6783 0.4126
vn 0.6065 0.7320 0.3104
vn -0.1219 -0.1495 0.9812
vn -0.0954 -0.1577 0.9829
vn -0.1171 -0.1283 0.9848
vn -0.5983 -0.0759 0.7976
vn -0.5897 -0.1339 0.7965
vn -0.4507 -0.2187 0.8655
vn -0.8889 -0.1279 0.4400
vn -0.8947 -0.1451 0.4225
vn -0.8706 -0.1464 0.4697
vn 0.2592 -0.8764 0.4059
vn 0.4025 -0.9146 0.0395
vn 0.5498 -0.8139 0.1882
vn 0.4963 -0.1025 0.8621
vn 0.4692 -0.0822 0.8792
vn 0.4703 -0.1048 0.8763
vn -0.3908 -0.2968 0.8713
vn -0.3559 -0.3309 0.8740
vn -0.3532 -0.2874 0.8903
vn -0.6241 -0.3734 0.6863
vn -0.6032 -0.2803 0.7467
vn -0.6424 -0.1862 0.7434
vn -0.9207 0.1454 0.3622
vn -0.9616 0.0254 0.2735
vn -0.9315 0.0755 0.3559
vn -0.9132 0.2543 0.3183
vn -0.9121 0.2352 0.3357
vn -0.8963 0.2575 0.3609
vn -0.9814 -0.0180 -0.1909
vn -0.9905 -0.0705 -0.1181
vn -0.9939 0.0020 -0.1103
vn 0.2184 -0.6056 0.7652
vn 0.3658 -0.4533 0.8128
vn 0.2160 -0.4338 0.8747
vn -0.3665 -0.3483 0.8627
vn -0.3961 -0.2452 0.8848
vn -0.4067 -0.3412 0.8474
vn 0.0872 -0.9859 0.1426
vn 0.0954 -0.9886 0.1161
vn 0.1376 -0.9758 0.1700
vn -0.7302 -0.4410 0.5219
vn -0.6917 -0.4374 0.5747
vn -0.6863 -0.4197 0.5940
vn -0.8194 0.0523 0.5708
vn -0.8490 0.1702 0.5001
vn -0.8609 0.0241 0.5083
vn -0.8848 0.1744 0.4321
vn -0.8716 0.2361 0.4296
vn -0.9973 0.0717 0.0182
vn -0.8434 0.0186 0.5370
vn -0.8138 0.0096 0.5810
vn -0.8193 0.0506 0.5712
vn -0.9360 -0.0295 0.3509
vn -0.9091 -0.1985 0.3662
vn -0.9180 0.0403 0.3944
vn -0.7219 0.6029 -0.3397
vn -0.8615 0.3405 -0.3767
vn -0.8770 0.3874 -0.2842
vn -0.6314 0.0792 -0.7714
vn -0.7338 -0.0932 -0.6730
vn -0.6772 0.1104 -0.7275
vn -0.5927 0.1571 -0.7899
vn -0.5771 0.0591 -0.8146
vn -0.6122 0.0824 -0.7864
vn -0.1235 0.0877 -0.9885
vn -0.2869 0.0174 -0.9578
vn -0.1285 0.1691 -0.9772
vn -0.7088 0.0836 -0.7004
vn -0.6616 0.2173 -0.7177
vn -0.5844 -0.0303 -0.8109
vn -0.5788 0.3857 -0.7185
vn -0.6005 0.3295 -0.7286
vn -0.5956 0.4857 -0.6398
vn 0.3144 0.3593 -0.8787
vn 0.0375 0.5568 -0.8298
vn 0.3284 0.3843 -0.8628
vn 0.2800 -0.1041 -0.9543
vn 0.2357 -0.0737 -0.9690
vn 0.2736 -0.0619 -0.9598
vn 0.0247 -0.4525 -0.8914
vn -0.0140 -0.4515 -0.8922
vn -0.0369 -0.4189 -0.9073
vn 0.2755 0.3999 -0.8742
vn 0.2751 0.4550 -0.8469
vn 0.3308 0.4245 -0.8428
vn -0.2689 0.1567 -0.9503
vn -0.3017 0.1506 -0.9414
vn -0.2565 0.2903 -0.9219
vn 0.5976 -0.2488 -0.7622
vn 0.6222 -0.1963 -0.7578
vn 0.6322 -0.2169 -0.7438
vn -0.5567 -0.3113 -0.7701
vn -0.5512 -0.3900 -0.7377
vn -0.5875 -0.3706 -0.7194
vn -0.9047 0.3027 -0.3000
vn -0.9292 0.2428 -0.2787
vn -0.9200 0.2963 -0.2564
vn -0.1979 -0.3263 -0.9243
vn -0.1868 -0.7098 -0.6792
vn -0.3233 -0.4953 -0.8064
vn 0.1395 -0.2104 -0.9676
vn 0.2678 -0.3384 -0.9021
vn -0.0192 -0.3314 -0.9433
vn -0.0488 -0.7751 -0.6299
vn -0.0983 -0.7346 -0.6713
vn 0.0059 -0.7666 -0.6421
vn -0.6988 -0.3380 -0.6304
vn -0.6845 -0.3593 -0.6343
vn -0.6997 -0.3785 -0.6059
vn 0.7259 0.5351 0.4321
vn 0.7409 0.5745 0.3478
vn 0.7133 0.5791 0.3947
vn 0.5854 -0.8106 0.0148
vn 0.5610 -0.8276 -0.0196
vn 0.6105 -0.7919 -0.0109
vn 0.6993 -0.6835 0.2092
vn 0.7555 -0.6444 0.1180
vn 0.7293 -0.6353 0.2539
vn 0.9788 -0.0393 0.2008
vn 0.9864 -0.1500 0.0668
vn 0.9925 -0.1139 0.0450
vn -0.6306 -0.5954 0.4978
vn -0.4929 -0.6931 0.5260
vn -0.4843 -0.5923 0.6440
vn 0.9445 -0.1996 0.2610
vn 0.9528 -0.1675 0.2533
vn 0.9419 -0.1903 0.2768
vn 0.7469 0.0038 0.6649
vn 0.7670 -0.0098 0.6416
vn 0.7542 0.0195 0.6564
vn 0.9396 -0.2377 0.2462
vn 0.9430 -0.2404 0.2302
vn 0.9419 -0.2317 0.2433
vn 0.8230 -0.4373 -0.3626
vn 0.8588 -0.3949 -0.3265
vn 0.8463 -0.4498 -0.2854
vn 0.9596 0.0314 -0.2795
vn 0.9590 0.0082 -0.2832
vn 0.9547 0.0408 -0.2949
vn 0.7662 0.0412 0.6413
vn 0.7581 0.0543 0.6499
vn 0.7604 0.0180 0.6492
vn -0.2030 -0.4637 0.8624
vn -0.2666 -0.3521 0.8972
vn -0.3179 -0.4358 0.8420
vn -0.3883 -0.5618 0.7304
vn -0.2472 -0.5790 0.7770
vn -0.3191 -0.5205 0.7920
vn 0.9771 0.0787 -0.1979
vn 0.9792 0.0715 -0.1899
vn 0.9752 0.0380 -0.2178
vn 0.4132 0.6289 0.6586
vn 0.2122 0.5567 0.8031
vn 0.5148 0.4418 0.7347
vn -0.5417 -0.3729 0.7534
vn -0.4843 -0.4225 0.7661
vn -0.4873 -0.3540 0.7983
vn 0.1881 0.5929 0.7830
vn 0.1950 0.3929 0.8987
vn 0.2592 0.5276 0.8090
vn -0.1372 0.8706 0.4724
vn -0.1723 0.8498 0.4982
vn -0.0998 0.8560 0.5072
vn -0.8568 0.2090 0.4714
vn -0.9107 0.1382 0.3893
vn -0.8959 0.1091 0.4307
vn -0.7178 0.1308 0.6839
vn -0.7420 0.0297 0.6697
vn -0.6479 0.1258 0.7513
vn -0.1801 0.5783 0.7957
vn -0.1522 0.5604 0.8141
vn -0.1079 0.5779 0.8090
vn -0.7353 0.4754 0.4830
vn -0.7475 0.4426 0.4952
vn -0.7087 0.4901 0.5075
vn -0.1325 0.5855 0.7998
vn -0.0444 0.5827 0.8115
vn -0.1498 0.6361 0.7569
vn -0.0891 0.8093 0.5806
vn -0.0966 0.7914 0.6036
vn -0.0454 0.8131 0.5803
vn 0.0627 0.5369 0.8413
vn 0.2324 0.4816 0.8450
vn 0.2499 0.6101 0.7519
vn -0.4200 0.1947 0.8864
vn -0.4613 0.1920 0.8662
vn -0.4274 0.1700 0.8879
vn 0.3655 -0.2775 0.8885
vn 0.3573 -0.3186 0.8780
vn 0.4494 -0.3044 0.8399
vn -0.2922 -0.8127 0.5041
vn -0.2700 -0.8114 0.5184
vn -0.3261 -0.7811 0.5324
vn 0.3277 -0.7145 0.6181
vn 0.4164 -0.6558 0.6298
vn 0.4198 -0.5516 0.7208
vn -0.5976 0.3593 0.7168
vn -0.5949 0.3559 0.7207
vn -0.5449 0.3725 0.7513
vn 0.5223 -0.5570 0.6457
vn 0.5513 -0.5208 0.6518
vn 0.5156 -0.5483 0.6584
vn -0.4560 -0.1824 0.8711
vn -0.5143 -0.1212 0.8490
vn -0.5101 -0.2079 0.8346
vn -0.6837 -0.6432 0.3448
vn -0.7271 -0.6212 0.2925
vn -0.6828 -0.6616 0.3100
vn -0.3087 -0.9506 -0.0322
vn -0.2988 -0.9543 0.0085
vn -0.3221 -0.9466 0.0137
vn -0.5428 0.3100 0.7806
vn -0.5803 0.2436 0.7771
vn -0.5364 0.2579 0.8036
vn -0.5448 0.2038 0.8134
vn -0.5522 0.2586 0.7926
vn -0.5739 0.2493 0.7801
vn -0.7658 -0.6209 -0.1675
vn -0.7964 -0.6041 0.0282
vn -0.8602 -0.5090 0.0317
vn -0.6770 0.7089 -0.1979
vn -0.6305 0.6896 -0.3562
vn -0.6971 0.6796 -0.2287
vn -0.6995 0.6939 -0.1711
vn -0.7681 0.5928 -0.2421
vn -0.7499 0.6414 -0.1618
vn -0.6716 0.4819 -0.5628
vn -0.6293 0.5091 -0.5871
vn -0.7089 0.4234 -0.5641
vn -0.7478 0.5604 0.3561
vn -0.7361 0.5524 0.3912
vn -0.7296 0.5632 0.3880
vn -0.6138 0.6954 0.3737
vn -0.6608 0.6091 0.4386
vn -0.4988 0.6485 0.5750
vn -0.1160 0.8770 0.4662
vn -0.1309 0.8801 0.4564
vn -0.1668 0.8474 0.5040
vn -0.2395 0.8292 0.5050
vn -0.2332 0.8760 0.4222
vn -0.2629 0.8608 0.4358
vn -0.4373 0.7294 0.5260
vn -0.4053 0.7793 0.4780
vn -0.4428 0.7897 0.4247
vn -0.3929 0.8034 0.4475
vn -0.4650 0.7593 0.4553
vn -0.4124 0.7402 0.5310
vn -0.4564 0.7998 0.3898
vn -0.4141 0.7904 0.4515
vn -0.3539 0.8213 0.4475
vn -0.5027 0.4951 0.7087
vn -0.4458 0.3687 0.8157
vn -0.4052 0.3649 0.8382
vn 0.0143 0.8087 0.5881
vn 0.0351 0.7942 0.6066
vn 0.0219 0.8193 0.5729
vn -0.8241 0.0263 0.5658
vn -0.8704 0.0304 0.4913
vn -0.8322 -0.0152 0.5542
vn 0.9375 -0.1754 0.3005
vn 0.9682 -0.0779 0.2376
vn 0.9418 -0.0183 0.3357
vn -0.2893 -0.9053 0.3109
vn -0.3124 -0.8989 0.3073
vn -0.3127 -0.9041 0.2913
vn -0.0513 -0.9937 0.0997
vn 0.1034 -0.9939 0.0375
vn -0.0369 -0.9940 0.1026
vn -0.3124 -0.1464 0.9386
vn -0.2863 -0.1681 0.9433
vn -0.2777 -0.1499 0.9489
vn -0.4297 -0.3143 0.8465
vn -0.4058 -0.3640 0.8384
vn -0.3426 -0.3573 0.8689
vn 0.7142 0.2278 0.6618
vn 0.8311 0.1995 0.5191
vn 0.8118 0.2630 0.5214
vn 0.1166 0.0662 0.9910
vn 0.1319 0.0425 0.9903
vn 0.1519 0.0620 0.9864
vn -0.2825 -0.9527 0.1117
vn -0.1676 -0.9575 0.2346
vn -0.3451 -0.9328 0.1040
vn -0.2515 -0.9059 0.3409
vn -0.2101 -0.9156 0.3429
vn -0.3254 -0.8744 0.3600
vn -0.1953 -0.6987 0.6882
vn -0.3844 -0.4913 0.7816
vn -0.4160 -0.4871 0.7679
vn -0.5518 -0.7868 -0.2764
vn -0.4915 -0.8591 -0.1430
vn -0.5582 -0.8216 -0.1155
vn -0.9234 0.0859 0.3742
vn -0.9078 0.0997 0.4073
vn -0.8780 0.2174 0.4264
vn -0.3736 -0.7944 -0.4790
vn -0.3525 -0.7794 -0.5179
vn -0.3556 -0.8018 -0.4802
vn 0.1151 -0.9783 0.1723
vn 0.3328 -0.9245 0.1860
vn 0.1327 -0.9682 0.2123
vn 0.4988 -0.1133 -0.8593
vn 0.4885 -0.1304 -0.8628
vn 0.4980 -0.1116 -0.8600
vn 0.7674 -0.1162 -0.6305
vn 0.7368 0.0790 -0.6715
vn 0.8078 0.0466 -0.5876
vn -0.9424 0.0006 -0.3345
vn -0.9456 -0.0040 -0.3254
vn -0.9487 0.0165 -0.3157
vn -0.8905 0.1489 -0.4299
vn -0.7840 0.4512 -0.4264
vn -0.7330 0.4245 -0.5315
vn -0.6626 -0.4871 -0.5690
vn -0.6270 -0.5165 -0.5831
vn -0.6939 -0.4827 -0.5343
vn -0.9994 0.0258 -0.0242
vn -0.9988 -0.0459 -0.0168
vn -0.9994 -0.0340 -0.0035
vn -0.9085 0.3648 -0.2038
vn -0.9107 0.3719 -0.1796
vn -0.8756 0.4114 -0.2531
vn -0.9486 -0.2056 0.2407
vn -0.8866 -0.3374 0.3163
vn -0.9266 -0.2210 0.3042
vn 0.5787 0.0419 -0.8145
vn 0.5945 0.0306 -0.8035
vn 0.6449 -0.1816 -0.7423
vn 0.6307 0.0509 -0.7744
vn 0.6461 0.1274 -0.7526
vn 0.6954 0.0614 -0.7160
vn 0.7931 -0.1259 -0.5960
vn 0.8308 -0.0374 -0.5554
vn 0.8575 -0.0451 -0.5124
vn 0.6793 0.2145 -0.7018
vn 0.7039 0.3219 -0.6331
vn 0.7235 0.2939 -0.6246
vn -0.3536 -0.9323 -0.0761
vn -0.3459 -0.9372 -0.0454
vn -0.3776 -0.9250 -0.0429
vn 0.8472 -0.4996 -0.1808
vn 0.8328 -0.5511 -0.0521
vn 0.8336 -0.5349 -0.1376
vn -0.8608 -0.3512 -0.3683
vn -0.8581 -0.4422 -0.2609
vn -0.9275 -0.1600 -0.3378
vn -0.6807 -0.5379 -0.4973
vn -0.6439 -0.5582 -0.5233
vn -0.6873 -0.5570 -0.4662
vn -0.6917 -0.0557 -0.7200
vn -0.6999 -0.0749 -0.7103
vn -0.7139 -0.0662 -0.6971
vn 0.9681 0.1795 -0.1747
vn 0.9747 0.1901 -0.1173
vn 0.9853 0.1136 -0.1278
vn -0.8866 0.1013 -0.4514
vn -0.9040 0.0661 -0.4223
vn -0.8931 0.1290 -0.4310
vn -0.8894 0.4342 -0.1428
vn -0.9015 0.4070 -0.1471
vn -0.8985 0.4182 -0.1338
vn -0.3053 -0.9424 -0.1365
vn -0.3461 -0.9347 -0.0811
vn -0.3001 -0.9184 -0.2578
vn -0.9291 -0.2399 0.2815
vn -0.8758 -0.2752 0.3965
vn -0.9155 -0.2033 0.3472
vn -0.8965 -0.3563 -0.2635
vn -0.8887 -0.3591 -0.2850
vn -0.8524 -0.4434 -0.2770
vn -0.9116 -0.4099 -0.0328
vn -0.9156 -0.4013 -0.0248
vn -0.9172 -0.3976 -0.0265
vn -0.9338 0.2621 -0.2435
vn -0.9278 0.2094 -0.3088
vn -0.9524 0.2388 -0.1897
vn -0.3687 -0.8002 0.4730
vn -0.4311 -0.7447 0.5094
vn -0.4625 -0.8297 0.3126
vn -0.4321 -0.8921 0.1324
vn -0.4536 -0.8858 0.0977
vn -0.3786 -0.9222 0.0795
vn -0.7002 -0.1966 0.6863
vn -0.6813 -0.1995 0.7042
vn -0.6826 -0.1840 0.7072
vn -0.8490 -0.3458 -0.3996
vn -0.8882 -0.3193 -0.3304
vn -0.8911 -0.2715 -0.3637
vn -0.8867 0.2695 -0.3757
vn -0.9645 0.2565 0.0627
vn -0.8596 0.4663 -0.2090
vn -0.6782 0.4896 -0.5480
vn -0.6517 0.5050 -0.5659
vn -0.6519 0.4917 -0.5772
vn -0.6412 0.4691 -0.6073
vn -0.6329 0.4660 -0.6183
vn -0.6606 0.4402 -0.6082
vn -0.5997 -0.7697 -0.2189
vn -0.6214 -0.7555 -0.2073
vn -0.5880 -0.7664 -0.2587
vn -0.0385 -0.7276 0.6849
vn 0.0468 -0.7607 0.6475
vn -0.1943 -0.5769 0.7933
vn -0.9170 -0.2502 -0.3105
vn -0.9129 -0.2703 -0.3058
vn -0.9825 -0.1514 -0.1086
vn -0.4388 -0.8959 0.0697
vn -0.4123 -0.9052 0.1032
vn -0.4969 -0.8670 0.0361
vn -0.2246 -0.9652 0.1342
vn -0.2371 -0.9567 0.1686
vn -0.2571 -0.9592 0.1176
vn 0.2189 -0.4666 0.8569
vn 0.2163 -0.4266 0.8782
vn 0.1898 -0.4543 0.8704
vn -0.1965 -0.9804 0.0122
vn -0.0708 -0.9974 0.0127
vn -0.0557 -0.9641 0.2598
vn -0.3303 -0.9376 -0.1087
vn -0.3512 -0.9348 -0.0535
vn -0.4480 -0.8825 -0.1429
vn -0.4058 -0.8419 -0.3558
vn -0.3563 -0.8609 -0.3631
vn -0.4182 -0.8476 -0.3267
vn 0.2080 0.8479 0.4876
vn 0.1371 0.9000 0.4137
vn 0.1207 0.8583 0.4988
vn -0.4796 0.0547 0.8758
vn -0.4803 0.1221 0.8685
vn -0.4984 0.0837 0.8629
vn 0.1310 0.3772 0.9168
vn 0.2154 0.3012 0.9289
vn 0.2451 0.3240 0.9137
vn -0.4234 0.8525 0.3067
vn -0.4005 0.8684 0.2923
vn -0.5010 0.8253 0.2605
vn -0.7116 0.6811 0.1721
vn -0.7335 0.6795 0.0153
vn -0.7549 0.6522 0.0697
vn -0.9823 0.1820 0.0439
vn -0.9610 0.1833 0.2072
vn -0.9618 0.2732 -0.0157
vn -0.6833 0.6503 0.3319
vn -0.6601 0.5374 0.5249
vn -0.4318 0.6930 0.5773
vn -0.6104 0.4588 0.6457
vn -0.6203 0.4622 0.6338
vn -0.6173 0.4476 0.6470
vn -0.4698 -0.0621 -0.8806
vn -0.5489 -0.2054 -0.8102
vn -0.5453 -0.1438 -0.8258
vn -0.6687 0.4828 0.5654
vn -0.6362 0.5858 0.5021
vn -0.7752 0.4863 0.4033
vn -0.4933 0.7171 0.4923
vn -0.3945 0.7171 0.5745
vn -0.4839 0.7325 0.4787
vn -0.7502 0.1223 0.6498
vn -0.7210 0.1116 0.6839
vn -0.7075 0.1488 0.6909
vn -0.8949 0.4395 0.0778
vn -0.9413 0.3351 -0.0398
vn -0.9364 0.3273 0.1262
vn -0.9603 0.2633 -0.0922
vn -0.9727 0.2316 0.0157
vn -0.9450 0.3271 -0.0089
vn -0.9524 0.2586 -0.1616
vn -0.9169 0.3395 -0.2101
vn -0.9307 0.2132 -0.2971
vn -0.1203 0.8258 -0.5510
vn -0.0782 0.8121 -0.5782
vn -0.0880 0.8067 -0.5843
vn -0.8876 0.1490 -0.4358
vn -0.9078 0.1153 -0.4033
vn -0.9149 0.1448 -0.3767
vn -0.1524 0.9838 0.0946
vn -0.1912 0.9731 0.1288
vn -0.0888 0.9910 0.1003
vn -0.0191 0.9733 -0.2288
vn -0.0242 0.9636 -0.2664
vn -0.0434 0.9668 -0.2518
vn -0.3085 0.9345 -0.1775
vn -0.2789 0.9366 -0.2120
vn -0.3358 0.9147 -0.2248
vn -0.8895 0.4484 -0.0882
vn -0.9017 0.4131 -0.1273
vn -0.9060 0.4167 -0.0738
vn -0.7272 0.2461 0.6408
vn -0.6597 0.2744 0.6996
vn -0.6652 0.2979 0.6847
vn -0.3528 -0.0927 0.9311
vn -0.3187 -0.0677 0.9454
vn -0.3464 -0.0718 0.9353
vn -0.9790 0.1321 -0.1550
vn -0.9965 -0.0203 -0.0812
vn -0.9931 0.0809 -0.0848
vn -0.9005 0.4207 -0.1101
vn -0.9142 0.3922 -0.1023
vn -0.8906 0.4501 -0.0658
vn -0.9965 0.0517 -0.0653
vn -0.9973 0.0669 -0.0299
vn -0.9901 0.1329 -0.0449
vn -0.8071 0.5726 0.1440
vn -0.8101 0.5758 0.1101
vn -0.8254 0.5521 0.1179
vn -0.7347 0.6329 0.2442
vn -0.7726 0.5968 0.2166
vn -0.7554 0.6013 0.2604
vn -0.3991 0.5153 0.7584
vn -0.4451 0.4399 0.7800
vn -0.3368 0.4834 0.8080
vn -0.3203 0.6693 0.6705
vn -0.3601 0.6114 0.7046
vn -0.3236 0.6120 0.7217
vn -0.3485 0.9085 -0.2307
vn -0.3337 0.9093 -0.2485
vn -0.3491 0.8430 -0.4092
vn -0.7643 0.5416 0.3500
vn -0.7854 0.5407 0.3012
vn -0.8053 0.5085 0.3048
vn -0.8297 0.1643 0.5335
vn -0.8093 0.1346 0.5717
vn -0.8017 0.1498 0.5786
vn 0.4209 -0.2609 0.8688
vn 0.4208 -0.2713 0.8656
vn 0.4297 -0.2730 0.8607
vn 0.1465 -0.2627 0.9537
vn 0.1393 -0.2665 0.9537
vn 0.1457 -0.2850 0.9474
vn 0.4116 -0.2480 0.8770
vn 0.4450 -0.2593 0.8572
vn 0.4383 -0.2464 0.8644
vn -0.0876 -0.1605 0.9832
vn -0.0258 -0.1045 0.9942
vn -0.0472 -0.0934 0.9945
vn 0.1929 -0.9083 0.3712
vn 0.1293 -0.9069 0.4010
vn 0.1143 -0.9221 0.3697
vn 0.4457 0.0664 0.8927
vn 0.3789 0.0430 0.9244
vn 0.4710 0.0430 0.8811
vn 0.0132 -0.4528 0.8915
vn 0.0091 -0.4379 0.8990
vn -0.0114 -0.4376 0.8991
vn -0.4213 -0.1080 0.9005
vn -0.4128 -0.1030 0.9050
vn -0.4274 -0.0985 0.8987
vn -0.3166 -0.3297 0.8894
vn -0.3079 -0.3424 0.8877
vn -0.3073 -0.3237 0.8949
vn -0.1316 -0.3825 0.9145
vn -0.7165 -0.4763 0.5097
vn -0.1347 -0.3693 0.9195
vn 0.9769 -0.0683 0.2024
vn 0.5146 -0.5317 0.6727
vn 0.7774 -0.3488 -0.5234
vt 0.464276 0.400877
vt 0.488520 0.450515
vt 0.465979 0.450006
vt 0.494692 0.415856
vt 0.531137 0.917678
vt 0.542208 0.926638
vt 0.511478 0.933657
vt 0.447382 0.454214
vt 0.442880 0.429933
vt 0.023585 0.331336
vt 0.010259 0.318639
vt 0.011951 0.320153
vt 0.672408 0.057524
vt 0.673200 0.056770
vt 0.677138 0.057131
vt 0.010619 0.325801
vt 0.672419 0.061073
vt 0.014841 0.313754
vt 0.675223 0.060181
vt 0.679534 0.058181
vt 0.451790 0.914440
vt 0.463145 0.929944
vt 0.450766 0.913250
vt 0.019460 0.300821
vt 0.005114 0.319136
vt 0.014006 0.310784
vt 0.453319 0.913539
vt 0.463380 0.907989
vt 0.020367 0.351564
vt 0.054939 0.355858
vt 0.052749 0.324688
vt 0.076210 0.366842
vt 0.056600 0.390585
vt 0.037127 0.385688
vt 0.496005 0.319777
vt 0.533096 0.318703
vt 0.540948 0.340111
vt 0.561105 0.330931
vt 0.033276 0.415155
vt 0.023863 0.408068
vt 0.559003 0.325161
vt 0.565570 0.326020
vt 0.506804 0.333375
vt 0.528435 0.362289
vt 0.477388 0.320666
vt 0.475065 0.336333
vt 0.465420 0.374566
vt 0.174586 0.147008
vt 0.148931 0.131731
vt 0.166823 0.119771
vt 0.407868 0.027200
vt 0.408948 0.030070
vt 0.403380 0.028180
vt 0.063288 0.012075
vt 0.044254 0.017993
vt 0.040983 0.010235
vt 0.523094 0.390394
vt 0.499238 0.395507
vt 0.498234 0.365594
vt 0.462113 0.347446
vt 0.492042 0.926342
vt 0.074884 0.333116
vt 0.530093 0.874244
vt 0.553237 0.888390
vt 0.550660 0.895780
vt 0.587670 0.840593
vt 0.573782 0.864879
vt 0.541138 0.834978
vt 0.440746 0.390984
vt 0.495340 0.969958
vt 0.503580 0.912730
vt 0.451627 0.369349
vt 0.850047 0.014282
vt 0.832529 0.046746
vt 0.833939 0.009813
vt 0.655467 0.858208
vt 0.618588 0.884610
vt 0.626122 0.855110
vt 0.823244 0.017848
vt 0.677131 0.830306
vt 0.679193 0.851986
vt 0.643441 0.835982
vt 0.665951 0.822064
vt 0.663730 0.817146
vt 0.651837 0.822159
vt 0.460840 0.004130
vt 0.469127 0.006455
vt 0.459991 0.009156
vt 0.170620 0.099290
vt 0.173350 0.098951
vt 0.171510 0.100060
vt 0.667660 0.818660
vt 0.664379 0.816056
vt 0.770464 0.013867
vt 0.767565 0.012197
vt 0.770274 0.012067
vt 0.765403 0.006209
vt 0.770454 0.008755
vt 0.677555 0.822359
vt 0.680552 0.806483
vt 0.695798 0.795619
vt 0.704259 0.819267
vt 0.930967 0.945510
vt 0.949081 0.946364
vt 0.939809 0.952493
vt 0.934483 0.954676
vt 0.706460 0.132100
vt 0.698885 0.119036
vt 0.715828 0.115585
vt 0.906256 0.938765
vt 0.926810 0.924300
vt 0.923591 0.975653
vt 0.936220 0.958960
vt 0.940823 0.012954
vt 0.928360 0.020260
vt 0.929095 0.010494
vt 0.693813 0.842473
vt 0.717919 0.784866
vt 0.734111 0.817621
vt 0.744559 0.795589
vt 0.740656 0.768483
vt 0.706577 0.070942
vt 0.702071 0.094413
vt 0.698213 0.066227
vt 0.706479 0.080721
vt 0.714264 0.086968
vt 0.364836 0.755487
vt 0.378221 0.768193
vt 0.374732 0.772851
vt 0.380660 0.747621
vt 0.929612 0.993492
vt 0.922636 0.990367
vt 0.553513 0.792704
vt 0.531270 0.783890
vt 0.544277 0.781726
vt 0.895501 0.977251
vt 0.848510 0.947302
vt 0.919998 0.914371
vt 0.891380 0.908534
vt 0.875283 0.924111
vt 0.752907 0.765578
vt 0.751640 0.760720
vt 0.392353 0.914187
vt 0.332440 0.938413
vt 0.353515 0.895856
vt 0.382033 0.944091
vt 0.403083 0.872859
vt 0.345968 0.871653
vt 0.398470 0.892537
vt 0.350460 0.131700
vt 0.363393 0.129158
vt 0.360638 0.151192
vt 0.402017 0.952538
vt 0.413036 0.932707
vt 0.404794 0.963294
vt 0.508135 0.015254
vt 0.492165 0.008788
vt 0.510163 0.009450
vt 0.361004 0.774386
vt 0.350381 0.765998
vt 0.906141 0.984601
vt 0.634342 0.430813
vt 0.645365 0.440282
vt 0.623090 0.452998
vt 0.868420 0.978582
vt 0.818233 0.974490
vt 0.513306 0.814452
vt 0.855400 0.985370
vt 0.839269 0.989315
vt 0.342814 0.754619
vt 0.579627 0.445884
vt 0.602442 0.443656
vt 0.606976 0.458921
vt 0.575940 0.812470
vt 0.591756 0.798512
vt 0.606404 0.818929
vt 0.576299 0.796977
vt 0.581988 0.785453
vt 0.822462 0.949290
vt 0.297377 0.926584
vt 0.311221 0.952879
vt 0.245171 0.959151
vt 0.239706 0.929008
vt 0.441742 0.852212
vt 0.465775 0.820564
vt 0.463192 0.850246
vt 0.412696 0.832592
vt 0.443120 0.819728
vt 0.229140 0.947663
vt 0.415980 0.383840
vt 0.328774 0.332217
vt 0.366108 0.340840
vt 0.297814 0.363258
vt 0.289070 0.340222
vt 0.330008 0.397814
vt 0.252581 0.367897
vt 0.250102 0.340900
vt 0.277071 0.406169
vt 0.246726 0.402686
vt 0.278039 0.438637
vt 0.311532 0.443597
vt 0.362286 0.415634
vt 0.423231 0.403011
vt 0.348810 0.459674
vt 0.323111 0.899340
vt 0.306333 0.881119
vt 0.318268 0.870684
vt 0.536067 0.039688
vt 0.525026 0.039815
vt 0.517718 0.032494
vt 0.212350 0.327706
vt 0.213528 0.352095
vt 0.159145 0.349438
vt 0.180089 0.326614
vt 0.138295 0.313758
vt 0.327518 0.951930
vt 0.538373 0.015208
vt 0.552779 0.026932
vt 0.576733 0.005581
vt 0.596142 0.008050
vt 0.573428 0.014390
vt 0.266102 0.897343
vt 0.564230 0.018790
vt 0.189036 0.399889
vt 0.128401 0.351970
vt 0.124551 0.365373
vt 0.113108 0.318100
vt 0.091985 0.379092
vt 0.089751 0.344206
vt 0.865024 0.854387
vt 0.860686 0.860613
vt 0.850227 0.845311
vt 0.122445 0.387239
vt 0.107056 0.406957
vt 0.119851 0.425996
vt 0.051236 0.924682
vt 0.029970 0.941800
vt 0.037825 0.912798
vt 0.059010 0.882717
vt 0.722430 0.103780
vt 0.733128 0.115504
vt 0.723690 0.111125
vt 0.078168 0.910386
vt 0.412913 0.895934
vt 0.421798 0.907694
vt 0.416133 0.915276
vt 0.428510 0.891913
vt 0.439721 0.032841
vt 0.430754 0.015232
vt 0.484579 0.031826
vt 0.798871 0.846196
vt 0.777966 0.827172
vt 0.802104 0.809386
vt 0.823176 0.838233
vt 0.842408 0.820205
vt 0.834760 0.802600
vt 0.865819 0.816776
vt 0.856937 0.860583
vt 0.852110 0.868286
vt 0.836386 0.861988
vt 0.776510 0.805210
vt 0.765172 0.862468
vt 0.812076 0.874452
vt 0.122725 0.878728
vt 0.150339 0.919117
vt 0.075048 0.881224
vt 0.415308 0.026179
vt 0.850990 0.793720
vt 0.864754 0.835182
vt 0.099387 0.333677
vt 0.735403 0.182723
vt 0.740901 0.192941
vt 0.729743 0.198015
vt 0.559054 0.829831
vt 0.500244 0.875769
vt 0.527953 0.898283
vt 0.402520 0.064630
vt 0.401400 0.063880
vt 0.406110 0.063890
vt 0.037884 0.942009
vt 0.039410 0.941980
vt 0.044731 0.026072
vt 0.048474 0.028785
vt 0.044265 0.026896
vt 0.039146 0.939944
vt 0.049132 0.039375
vt 0.042494 0.943046
vt 0.713521 0.058256
vt 0.717350 0.057430
vt 0.715690 0.058850
vt 0.046254 0.939975
vt 0.044836 0.946196
vt 0.042401 0.036570
vt 0.041470 0.028793
vt 0.611924 0.835037
vt 0.603484 0.844929
vt 0.045699 0.419295
vt 0.118674 0.446503
vt 0.128510 0.463353
vt 0.109829 0.481354
vt 0.605099 0.680010
vt 0.630641 0.670008
vt 0.632929 0.681270
vt 0.614372 0.684607
vt 0.662914 0.663137
vt 0.671533 0.668042
vt 0.658257 0.687205
vt 0.173150 0.447297
vt 0.672744 0.684043
vt 0.662322 0.690815
vt 0.117606 0.417297
vt 0.157412 0.895182
vt 0.156755 0.851667
vt 0.129233 0.847851
vt 0.096309 0.852403
vt 0.064680 0.847100
vt 0.050261 0.843879
vt 0.077058 0.822649
vt 0.032578 0.831443
vt 0.843687 0.741953
vt 0.783780 0.746422
vt 0.834223 0.708279
vt 0.870090 0.729157
vt 0.849319 0.698029
vt 0.274506 0.552328
vt 0.300680 0.527484
vt 0.341900 0.536224
vt 0.771083 0.215366
vt 0.787455 0.227631
vt 0.770136 0.227347
vt 0.804290 0.701178
vt 0.803387 0.685651
vt 0.834066 0.693616
vt 0.813125 0.670526
vt 0.860715 0.689176
vt 0.839014 0.646893
vt 0.794694 0.668493
vt 0.164838 0.819865
vt 0.095018 0.806606
vt 0.119728 0.778308
vt 0.398775 0.591911
vt 0.208452 0.598175
vt 0.274817 0.648805
vt 0.267504 0.685522
vt 0.217139 0.673185
vt 0.296528 0.699045
vt 0.278468 0.712824
vt 0.302781 0.714776
vt 0.247394 0.718597
vt 0.114336 0.844251
vt 0.796770 0.024960
vt 0.793461 0.019720
vt 0.796770 0.019140
vt 0.641030 0.666830
vt 0.060223 0.860451
vt 0.200287 0.734236
vt 0.227655 0.721299
vt 0.222121 0.746599
vt 0.239640 0.738654
vt 0.737851 0.892216
vt 0.728316 0.894258
vt 0.724841 0.888314
vt 0.487810 0.555671
vt 0.484072 0.576548
vt 0.463030 0.558875
vt 0.451255 0.541936
vt 0.468362 0.531413
vt 0.435876 0.519113
vt 0.470767 0.502164
vt 0.633646 0.915083
vt 0.653526 0.906729
vt 0.657820 0.912554
vt 0.419714 0.483649
vt 0.214181 0.505189
vt 0.223287 0.522884
vt 0.205255 0.529368
vt 0.690060 0.923314
vt 0.659407 0.932849
vt 0.679659 0.949653
vt 0.689879 0.891487
vt 0.672192 0.879762
vt 0.668494 0.357224
vt 0.669875 0.394994
vt 0.645060 0.369340
vt 0.452788 0.991888
vt 0.439470 0.975148
vt 0.442045 0.971411
vt 0.057124 0.264228
vt 0.076079 0.284324
vt 0.946936 0.719454
vt 0.924516 0.726532
vt 0.921719 0.707349
vt 0.509580 0.902350
vt 0.728445 0.523857
vt 0.760929 0.475507
vt 0.767839 0.514552
vt 0.966090 0.817010
vt 0.957913 0.811005
vt 0.983272 0.813332
vt 0.665519 0.436065
vt 0.650394 0.413959
vt 0.711770 0.397465
vt 0.715657 0.445387
vt 0.684282 0.605097
vt 0.668943 0.577590
vt 0.688640 0.601160
vt 0.629574 0.615549
vt 0.632318 0.559613
vt 0.650322 0.507703
vt 0.604901 0.531445
vt 0.584234 0.493020
vt 0.569977 0.513798
vt 0.593255 0.464306
vt 0.705661 0.550772
vt 0.680927 0.497150
vt 0.709520 0.483070
vt 0.405202 0.317249
vt 0.439500 0.373281
vt 0.446641 0.347433
vt 0.435247 0.339319
vt 0.893868 0.800076
vt 0.953042 0.754057
vt 0.945308 0.802007
vt 0.897107 0.747095
vt 0.875901 0.799431
vt 0.690796 0.363256
vt 0.714024 0.364215
vt 0.751907 0.374353
vt 0.741743 0.445629
vt 0.749733 0.410555
vt 0.719148 0.590270
vt 0.728600 0.578357
vt 0.751627 0.593255
vt 0.654022 0.636007
vt 0.703916 0.615716
vt 0.750349 0.624805
vt 0.711027 0.642371
vt 0.764153 0.663935
vt 0.737212 0.668456
vt 0.691166 0.638337
vt 0.539961 0.582019
vt 0.550802 0.617648
vt 0.523132 0.619559
vt 0.491786 0.615472
vt 0.007480 0.102919
vt 0.010085 0.075207
vt 0.026050 0.080125
vt 0.506873 0.559695
vt 0.529360 0.559207
vt 0.473216 0.609215
vt 0.463862 0.580959
vt 0.769874 0.889138
vt 0.752890 0.876868
vt 0.776316 0.884624
vt 0.751826 0.909380
vt 0.736661 0.924744
vt 0.764970 0.946293
vt 0.736730 0.951543
vt 0.752940 0.957580
vt 0.186940 0.607092
vt 0.204867 0.579939
vt 0.759296 0.974811
vt 0.793530 0.957765
vt 0.783701 0.945369
vt 0.794071 0.917671
vt 0.007208 0.010283
vt 0.017361 0.011336
vt 0.007616 0.021872
vt 0.395190 0.084610
vt 0.395646 0.072448
vt 0.405453 0.096598
vt 0.815693 0.898574
vt 0.837948 0.909576
vt 0.213472 0.616309
vt 0.193723 0.630031
vt 0.191601 0.612195
vt 0.197563 0.649652
vt 0.458363 0.882087
vt 0.059428 0.501571
vt 0.073813 0.543273
vt 0.058845 0.539372
vt 0.223076 0.814138
vt 0.199871 0.849369
vt 0.339655 0.087801
vt 0.324678 0.117928
vt 0.304714 0.078671
vt 0.340257 0.114177
vt 0.865052 0.655668
vt 0.912374 0.650284
vt 0.116121 0.727244
vt 0.081713 0.688927
vt 0.112565 0.717168
vt 0.897012 0.617247
vt 0.876150 0.620520
vt 0.906964 0.630652
vt 0.886019 0.579831
vt 0.829711 0.622073
vt 0.850136 0.587763
vt 0.872666 0.371009
vt 0.860883 0.396068
vt 0.825935 0.378374
vt 0.863387 0.338098
vt 0.844322 0.297659
vt 0.809238 0.350473
vt 0.810928 0.317760
vt 0.254339 0.064166
vt 0.251060 0.067170
vt 0.235506 0.062834
vt 0.854749 0.281448
vt 0.814161 0.279576
vt 0.823100 0.237436
vt 0.867438 0.237766
vt 0.855724 0.213952
vt 0.777250 0.174711
vt 0.858361 0.166847
vt 0.852380 0.206990
vt 0.767770 0.202530
vt 0.803633 0.261795
vt 0.770530 0.237583
vt 0.773364 0.254180
vt 0.775151 0.285334
vt 0.770130 0.318492
vt 0.790505 0.300729
vt 0.749008 0.349939
vt 0.793818 0.334386
vt 0.757253 0.301177
vt 0.562706 0.934533
vt 0.568239 0.911166
vt 0.576834 0.922179
vt 0.746143 0.317358
vt 0.734486 0.320882
vt 0.531026 0.987032
vt 0.551134 0.977905
vt 0.726668 0.367386
vt 0.782976 0.403027
vt 0.792920 0.130962
vt 0.761865 0.114734
vt 0.793418 0.104445
vt 0.395818 0.609371
vt 0.435122 0.613693
vt 0.737570 0.162323
vt 0.550780 0.411149
vt 0.519039 0.454313
vt 0.920423 0.076548
vt 0.872457 0.094981
vt 0.890507 0.051742
vt 0.953933 0.870899
vt 0.985765 0.839210
vt 0.994930 0.848000
vt 0.914511 0.465524
vt 0.966376 0.482399
vt 0.920317 0.499001
vt 0.841388 0.087796
vt 0.420389 0.646485
vt 0.399434 0.637165
vt 0.432226 0.626612
vt 0.402385 0.665213
vt 0.378223 0.662945
vt 0.938771 0.528299
vt 0.909677 0.539963
vt 0.917501 0.538537
vt 0.355937 0.621943
vt 0.350826 0.674120
vt 0.371240 0.641695
vt 0.394010 0.558270
vt 0.185539 0.860221
vt 0.194471 0.893512
vt 0.730305 0.736292
vt 0.762087 0.748634
vt 0.747733 0.753083
vt 0.766477 0.710040
vt 0.026430 0.067296
vt 0.036299 0.488876
vt 0.068374 0.459099
vt 0.025254 0.496041
vt 0.027332 0.537881
vt 0.853815 0.184662
vt 0.204558 0.567693
vt 0.223752 0.558959
vt 0.898963 0.004934
vt 0.915900 0.019273
vt 0.902948 0.021570
vt 0.882084 0.009819
vt 0.795525 0.721007
vt 0.765933 0.682116
vt 0.746417 0.704759
vt 0.872291 0.194183
vt 0.877953 0.184215
vt 0.905967 0.185697
vt 0.707034 0.717109
vt 0.718434 0.701123
vt 0.378545 0.113245
vt 0.368671 0.071911
vt 0.384363 0.089166
vt 0.820138 0.398344
vt 0.780798 0.429228
vt 0.383105 0.050922
vt 0.898284 0.338178
vt 0.889193 0.309143
vt 0.404234 0.153199
vt 0.385490 0.187004
vt 0.384914 0.161508
vt 0.180870 0.949127
vt 0.207204 0.935882
vt 0.733800 0.851829
vt 0.744486 0.857804
vt 0.709540 0.843169
vt 0.984125 0.502094
vt 0.992154 0.546741
vt 0.877170 0.153487
vt 0.890280 0.151700
vt 0.906099 0.159113
vt 0.956010 0.554600
vt 0.314043 0.700032
vt 0.379328 0.690079
vt 0.374686 0.700010
vt 0.983554 0.075599
vt 0.975224 0.092148
vt 0.970112 0.076621
vt 0.154915 0.708858
vt 0.171354 0.718326
vt 0.157383 0.722768
vt 0.142344 0.484784
vt 0.171937 0.485352
vt 0.178784 0.513121
vt 0.201647 0.483964
vt 0.232068 0.449275
vt 0.585624 0.685580
vt 0.568695 0.671876
vt 0.576186 0.661883
vt 0.178936 0.698740
vt 0.618662 0.957199
vt 0.633377 0.933808
vt 0.647552 0.961823
vt 0.635443 0.963499
vt 0.152726 0.639030
vt 0.162830 0.665332
vt 0.152341 0.647416
vt 0.673479 0.958006
vt 0.684960 0.967591
vt 0.398500 0.129681
vt 0.403922 0.123469
vt 0.405720 0.124960
vt 0.786548 0.617664
vt 0.768170 0.577578
vt 0.268656 0.471354
vt 0.313067 0.479519
vt 0.276318 0.506090
vt 0.252540 0.522310
vt 0.207525 0.695741
vt 0.190477 0.678766
vt 0.593255 0.670642
vt 0.606435 0.663306
vt 0.591372 0.681966
vt 0.830821 0.587721
vt 0.807740 0.599359
vt 0.561132 0.378690
vt 0.563410 0.359650
vt 0.197001 0.906574
vt 0.194103 0.122394
vt 0.736114 0.577281
vt 0.819999 0.572756
vt 0.830302 0.410322
vt 0.704461 0.675731
vt 0.693000 0.658900
vt 0.597898 0.595820
vt 0.585411 0.585940
vt 0.535115 0.631092
vt 0.789190 0.584460
vt 0.799376 0.577487
vt 0.705556 0.939662
vt 0.712791 0.893659
vt 0.029389 0.032548
vt 0.031301 0.054510
vt 0.013877 0.039384
vt 0.691980 0.970517
vt 0.829013 0.885397
vt 0.495033 0.068762
vt 0.483955 0.059640
vt 0.500433 0.061463
vt 0.477332 0.064720
vt 0.302167 0.519142
vt 0.310705 0.509791
vt 0.307167 0.519922
vt 0.523813 0.532387
vt 0.496368 0.515146
vt 0.538040 0.504060
vt 0.578481 0.462229
vt 0.564648 0.469711
vt 0.347380 0.486200
vt 0.342356 0.500179
vt 0.570528 0.548239
vt 0.371908 0.319147
vt 0.337661 0.510591
vt 0.510683 0.488019
vt 0.635604 0.475673
vt 0.229288 0.126318
vt 0.272025 0.142399
vt 0.200774 0.148130
vt 0.849060 0.113507
s 1
f 62/1/1 255/2/2 146/3/3
f 255/2/4 62/1/5 195/4/6
f 62/5/7 212/6/8 256/7/9
f 146/3/10 293/8/11 212/9/12
f 62/1/13 146/3/14 212/9/15
f 277/10/16 299/11/17 9/12/18
f 9/13/19 299/14/20 10/15/21
f 297/16/22 299/11/23 277/10/24
f 297/17/25 9/13/26 10/15/27
f 11/18/28 277/10/29 9/12/30
f 299/19/31 297/17/32 11/20/33
f 11/20/34 297/17/35 10/15/36
f 11/21/37 12/22/38 299/23/39
f 10/24/40 299/25/41 12/26/42
f 11/27/43 9/28/44 12/22/45
f 10/24/46 277/10/47 11/18/48
f 222/29/49 277/10/50 206/30/51
f 223/31/52 206/30/53 277/10/54
f 93/32/55 197/33/56 206/30/57
f 222/29/58 206/30/59 198/34/60
f 206/30/61 197/33/62 198/34/63
f 222/35/64 198/36/65 119/37/66
f 198/36/67 139/38/68 119/37/69
f 199/39/70 139/40/71 198/34/72
f 199/41/73 237/42/74 139/38/75
f 119/37/76 33/43/77 222/35/78
f 33/43/79 119/37/80 120/44/81
f 277/45/82 222/35/83 297/46/84
f 222/35/85 33/43/86 297/46/87
f 297/46/88 33/43/89 131/47/90
f 269/48/91 33/49/92 120/50/93
f 270/51/94 120/52/95 85/53/96
f 269/54/97 270/55/98 85/56/99
f 85/57/100 272/58/101 269/59/102
f 33/43/103 269/59/104 272/58/105
f 33/43/106 272/58/107 131/47/108
f 131/47/109 9/60/110 297/46/111
f 12/22/112 9/28/113 220/61/114
f 10/24/115 223/31/116 277/10/117
f 223/31/118 177/62/119 206/30/120
f 93/63/121 206/64/122 177/65/123
f 201/66/124 197/67/125 93/63/126
f 247/68/127 201/66/128 93/63/129
f 131/47/130 62/1/131 256/69/132
f 219/70/133 220/61/134 256/7/135
f 220/61/136 131/71/137 256/7/138
f 220/72/139 9/60/140 131/47/141
f 131/47/142 272/58/143 62/1/144
f 191/73/145 80/74/146 25/75/147
f 80/76/148 139/77/149 237/78/150
f 25/75/151 80/74/152 178/79/153
f 80/76/154 162/80/155 178/81/156
f 237/78/157 233/82/158 80/76/159
f 80/76/160 233/82/161 250/83/162
f 233/82/163 4/84/164 250/83/165
f 3/85/166 4/84/167 233/82/168
f 2/86/169 3/87/170 250/88/171
f 2/89/172 250/90/173 4/91/174
f 162/92/175 4/84/176 3/93/177
f 162/94/178 2/95/179 4/96/180
f 176/97/181 3/98/182 2/95/183
f 3/99/184 176/100/185 51/101/186
f 164/102/187 162/80/188 3/99/189
f 164/102/190 3/99/191 51/101/192
f 288/103/193 176/104/194 2/105/195
f 2/105/196 162/106/197 288/103/198
f 288/107/199 121/108/200 176/109/201
f 148/110/202 121/111/203 288/103/204
f 288/103/205 5/112/206 148/110/207
f 288/103/208 162/106/209 250/113/210
f 5/114/211 288/115/212 250/116/213
f 162/80/214 80/76/215 250/83/216
f 178/117/217 162/80/218 164/102/219
f 164/102/220 51/101/221 240/118/222
f 164/102/223 240/118/224 194/119/225
f 194/119/226 240/118/227 153/120/228
f 240/118/229 152/121/230 153/120/231
f 240/122/232 121/123/233 152/124/234
f 121/123/235 240/125/236 51/126/237
f 260/127/238 250/128/239 3/129/240
f 250/128/241 260/127/242 5/130/243
f 260/131/244 113/132/245 5/112/246
f 44/133/247 69/134/248 215/135/249
f 215/136/250 148/110/251 5/112/252
f 148/110/253 215/136/254 69/137/255
f 121/138/256 148/110/257 152/139/258
f 187/140/259 152/139/260 148/110/261
f 152/121/262 1/141/263 153/120/264
f 100/142/265 1/141/266 152/121/267
f 100/143/268 187/144/269 94/145/270
f 187/144/271 100/143/272 152/146/273
f 34/147/274 100/143/275 94/145/276
f 34/147/277 94/145/278 89/148/279
f 100/143/280 34/147/281 109/149/282
f 100/150/283 109/151/284 1/152/285
f 153/153/286 1/154/287 194/155/288
f 289/156/289 233/157/290 237/158/291
f 3/159/292 233/160/293 260/127/294
f 215/136/295 5/112/296 113/161/297
f 44/162/298 215/163/299 113/164/300
f 69/137/301 44/165/302 200/166/303
f 247/68/304 147/167/305 44/133/306
f 44/168/307 147/169/308 200/166/309
f 289/170/310 260/127/311 233/160/312
f 289/171/313 257/172/314 260/173/315
f 201/66/316 207/174/317 257/175/318
f 257/175/319 289/176/320 201/66/321
f 207/174/322 44/133/323 113/177/324
f 260/173/325 257/172/326 113/164/327
f 113/178/328 257/175/329 207/174/330
f 69/137/331 200/166/332 245/179/333
f 245/180/334 187/144/335 69/181/336
f 245/180/337 200/182/338 76/183/339
f 147/167/340 55/184/341 200/185/342
f 147/167/343 56/186/344 55/184/345
f 242/187/346 200/188/347 55/184/348
f 76/183/349 200/182/350 242/189/351
f 211/190/352 76/191/353 242/192/354
f 211/190/355 70/193/356 76/191/357
f 32/194/358 76/191/359 70/193/360
f 211/190/361 185/195/362 70/193/363
f 70/193/364 91/196/365 32/194/366
f 91/196/367 246/197/368 32/194/369
f 23/198/370 91/196/371 70/193/372
f 91/196/373 23/198/374 108/199/375
f 225/200/376 23/198/377 185/195/378
f 185/195/379 23/198/380 70/193/381
f 216/201/382 225/200/383 185/195/384
f 216/201/385 185/195/386 154/202/387
f 154/202/388 185/195/389 211/190/390
f 154/202/391 27/203/392 97/204/393
f 154/202/394 211/190/395 27/203/396
f 187/144/397 245/180/398 94/145/399
f 94/145/400 245/180/401 141/205/402
f 94/145/403 141/205/404 89/148/405
f 89/148/406 141/205/407 181/206/408
f 89/148/409 181/206/410 182/207/411
f 246/208/412 136/209/413 182/210/414
f 182/211/415 136/212/416 41/213/417
f 41/213/418 89/214/419 182/211/420
f 41/213/421 230/215/422 89/214/423
f 69/181/424 187/144/425 148/216/426
f 182/210/427 181/217/428 246/218/429
f 141/219/430 32/220/431 181/221/432
f 32/222/433 141/205/434 76/183/435
f 245/180/436 76/183/437 141/205/438
f 181/217/439 32/223/440 246/218/441
f 91/196/442 136/212/443 246/197/444
f 91/196/445 267/224/446 136/212/447
f 266/225/448 41/213/449 169/226/450
f 41/213/451 266/225/452 170/227/453
f 170/227/454 230/215/455 41/213/456
f 8/228/457 227/229/458 169/226/459
f 8/230/460 6/231/461 227/232/462
f 111/233/463 8/228/464 169/226/465
f 8/228/466 111/233/467 184/234/468
f 169/226/469 41/213/470 111/233/471
f 267/224/472 41/213/473 136/212/474
f 111/233/475 41/213/476 267/224/477
f 111/233/478 110/235/479 184/234/480
f 244/236/481 8/237/482 184/238/483
f 184/238/484 135/239/485 244/236/486
f 68/240/487 226/241/488 244/242/489
f 135/239/490 68/243/491 244/236/492
f 109/244/493 46/245/494 1/246/495
f 34/147/496 46/247/497 109/244/498
f 230/248/499 34/249/500 89/250/501
f 150/251/502 203/252/503 46/253/504
f 45/254/505 150/251/506 46/253/507
f 46/253/508 63/255/509 45/254/510
f 34/256/511 63/255/512 46/253/513
f 227/232/514 63/255/515 170/257/516
f 6/231/517 37/258/518 227/232/519
f 227/232/520 285/259/521 226/260/522
f 37/258/523 285/259/524 227/232/525
f 45/254/526 63/255/527 227/232/528
f 45/254/529 227/232/530 226/260/531
f 1/261/532 46/253/533 203/252/534
f 251/262/535 203/252/536 150/251/537
f 251/262/538 150/251/539 68/263/540
f 213/264/541 251/265/542 39/266/543
f 251/265/544 68/243/545 39/266/546
f 68/243/547 135/239/548 39/266/549
f 194/119/550 1/261/551 203/252/552
f 34/249/553 230/248/554 170/267/555
f 63/255/556 34/268/557 170/257/558
f 227/232/559 170/257/560 229/269/561
f 169/226/562 227/229/563 229/270/564
f 169/271/565 229/272/566 170/273/567
f 266/225/568 169/226/569 170/227/570
f 201/66/571 247/68/572 268/274/573
f 207/174/574 201/66/575 268/274/576
f 247/68/577 207/174/578 268/274/579
f 247/68/580 93/63/581 95/275/582
f 177/276/583 95/275/584 93/63/585
f 7/277/586 285/278/587 37/279/588
f 7/280/589 8/237/590 285/281/591
f 7/282/592 37/283/593 286/284/594
f 286/285/595 8/237/596 244/236/597
f 37/283/598 226/286/599 286/284/600
f 6/287/601 8/237/602 7/280/603
f 286/288/604 6/289/605 7/290/606
f 244/236/607 6/287/608 286/285/609
f 6/287/610 226/291/611 37/292/612
f 6/287/613 244/236/614 226/291/615
f 285/293/616 286/284/617 226/286/618
f 285/293/619 8/294/620 286/284/621
f 45/254/622 226/260/623 150/251/624
f 68/263/625 150/251/626 226/260/627
f 201/66/628 289/176/629 237/295/630
f 237/295/631 199/296/632 201/66/633
f 197/33/634 201/297/635 199/39/636
f 197/33/637 199/39/638 198/34/639
f 241/298/640 58/299/641 118/300/642
f 248/301/643 129/302/644 118/303/645
f 118/303/646 284/304/647 248/301/648
f 57/305/649 135/306/650 118/307/651
f 30/308/652 241/298/653 110/235/654
f 110/309/655 241/310/656 118/307/657
f 135/306/658 110/309/659 118/307/660
f 135/311/661 184/234/662 110/235/663
f 213/264/664 26/312/665 251/265/666
f 236/313/667 213/264/668 276/314/669
f 213/264/670 39/266/671 40/315/672
f 262/316/673 48/317/674 28/318/675
f 48/317/676 175/319/677 28/318/678
f 28/320/679 175/321/680 202/322/681
f 52/323/682 28/320/683 171/324/684
f 262/325/685 28/326/686 50/327/687
f 255/328/688 15/329/689 146/330/690
f 128/331/691 127/332/692 202/333/693
f 202/333/694 127/332/695 217/334/696
f 171/335/697 202/333/698 217/334/699
f 171/335/700 217/334/701 290/336/702
f 217/334/703 31/337/704 290/336/705
f 50/338/706 28/339/707 52/340/708
f 117/341/709 262/325/710 50/327/711
f 189/342/712 262/325/713 96/343/714
f 96/343/715 107/344/716 114/345/717
f 107/344/718 263/346/719 276/347/720
f 236/348/721 276/347/722 263/346/723
f 40/349/724 107/344/725 276/347/726
f 40/349/727 114/345/728 107/344/729
f 40/350/730 276/314/731 213/264/732
f 39/351/733 88/352/734 40/353/735
f 118/303/736 129/302/737 57/354/738
f 39/266/739 135/239/740 57/355/741
f 129/356/742 88/357/743 57/358/744
f 57/358/745 88/357/746 39/359/747
f 252/360/748 99/361/749 208/362/750
f 278/363/751 208/364/752 99/365/753
f 159/366/754 165/367/755 99/365/756
f 38/368/757 43/369/758 165/367/759
f 16/370/760 38/371/761 140/372/762
f 16/373/763 43/369/764 38/368/765
f 17/374/766 16/375/767 140/376/768
f 296/377/769 66/378/770 140/372/771
f 228/379/772 66/378/773 296/377/774
f 140/372/775 159/380/776 296/377/777
f 140/372/778 38/381/779 159/380/780
f 219/382/781 258/383/782 21/384/783
f 21/385/784 12/22/785 219/70/786
f 125/386/787 12/22/788 21/385/789
f 125/386/790 10/387/791 12/22/792
f 223/31/793 10/24/794 125/388/795
f 54/389/796 223/31/797 125/388/798
f 223/390/799 54/391/800 177/392/801
f 147/167/802 247/68/803 95/275/804
f 95/275/805 56/186/806 147/167/807
f 54/393/808 95/275/809 177/276/810
f 106/394/811 214/395/812 21/396/813
f 106/397/814 21/398/815 258/399/816
f 234/400/817 106/401/818 258/383/819
f 234/400/820 183/402/821 75/403/822
f 75/404/823 174/405/824 234/406/825
f 126/407/826 101/408/827 174/405/828
f 174/405/829 101/408/830 112/409/831
f 101/408/832 232/410/833 112/409/834
f 210/411/835 232/410/836 18/412/837
f 232/410/838 210/411/839 112/409/840
f 210/411/841 97/413/842 112/409/843
f 106/394/844 234/414/845 27/415/846
f 234/414/847 112/409/848 27/415/849
f 106/394/850 27/415/851 211/416/852
f 86/417/853 106/418/854 211/190/855
f 106/419/856 86/417/857 214/420/858
f 242/192/859 86/417/860 211/190/861
f 234/414/862 174/405/863 112/409/864
f 214/421/865 125/422/866 21/423/867
f 95/424/868 125/422/869 214/421/870
f 54/391/871 125/422/872 95/424/873
f 95/424/874 214/421/875 86/425/876
f 234/400/877 258/383/878 183/402/879
f 183/402/880 219/426/881 132/427/882
f 183/402/883 132/427/884 282/428/885
f 75/429/886 183/402/887 205/430/888
f 53/431/889 75/432/890 168/433/891
f 53/434/892 174/405/893 75/404/894
f 53/434/895 126/407/896 174/405/897
f 126/435/898 53/431/899 22/436/900
f 126/435/901 22/436/902 186/437/903
f 22/436/904 53/431/905 168/433/906
f 134/438/907 81/439/908 22/436/909
f 81/439/910 186/437/911 22/436/912
f 249/440/913 126/435/914 186/437/915
f 77/441/916 102/442/917 105/443/918
f 77/441/919 105/443/920 238/444/921
f 105/445/922 47/446/923 238/447/924
f 77/441/925 238/444/926 208/364/927
f 208/364/928 273/448/929 143/449/930
f 208/364/931 278/363/932 273/448/933
f 36/450/934 208/364/935 238/444/936
f 36/450/937 252/451/938 208/364/939
f 92/452/940 36/453/941 47/454/942
f 252/360/943 36/453/944 92/452/945
f 192/455/946 252/360/947 92/452/948
f 161/456/949 252/360/950 192/455/951
f 161/456/952 167/457/953 253/458/954
f 137/459/955 253/458/956 167/457/957
f 189/342/958 253/460/959 137/461/960
f 137/462/961 167/457/962 138/463/963
f 145/464/964 138/463/965 167/457/966
f 161/456/967 192/455/968 167/457/969
f 167/457/970 192/455/971 224/465/972
f 224/465/973 145/464/974 167/457/975
f 224/466/976 138/467/977 145/468/978
f 224/465/979 192/455/980 92/452/981
f 224/469/982 137/470/983 138/471/984
f 224/465/985 92/452/986 254/472/987
f 254/472/988 48/473/989 224/465/990
f 189/474/991 14/475/992 253/476/993
f 190/477/994 14/475/995 189/474/996
f 95/275/997 86/478/998 56/186/999
f 55/184/1000 56/186/1001 86/478/1002
f 71/479/1003 115/480/1004 116/481/1005
f 115/482/1006 71/483/1007 50/338/1008
f 163/484/1009 64/485/1010 90/486/1011
f 163/484/1012 193/487/1013 64/485/1014
f 274/488/1015 193/489/1016 171/335/1017
f 171/490/1018 193/491/1019 52/492/1020
f 64/493/1021 274/488/1022 239/494/1023
f 290/336/1024 274/488/1025 171/335/1026
f 274/488/1027 290/336/1028 239/494/1029
f 274/488/1030 64/493/1031 193/495/1032
f 64/493/1033 239/494/1034 180/496/1035
f 290/336/1036 151/497/1037 239/494/1038
f 261/498/1039 180/496/1040 239/494/1041
f 261/498/1042 239/494/1043 151/497/1044
f 180/499/1045 261/500/1046 60/501/1047
f 60/501/1048 20/502/1049 180/499/1050
f 291/503/1051 65/504/1052 188/505/1053
f 65/504/1054 291/503/1055 20/502/1056
f 264/506/1057 271/507/1058 275/508/1059
f 271/509/1060 291/503/1061 265/510/1062
f 271/509/1063 265/510/1064 172/511/1065
f 271/509/1066 172/511/1067 275/512/1068
f 172/511/1069 300/513/1070 275/512/1071
f 172/511/1072 15/329/1073 19/514/1074
f 19/514/1075 295/515/1076 172/511/1077
f 300/513/1078 172/511/1079 74/516/1080
f 15/329/1081 255/517/1082 19/514/1083
f 15/329/1084 73/518/1085 146/519/1086
f 15/329/1087 172/511/1088 73/518/1089
f 73/518/1090 172/511/1091 265/510/1092
f 146/519/1093 73/518/1094 293/520/1095
f 293/520/1096 73/518/1097 173/521/1098
f 265/510/1099 173/521/1100 73/518/1101
f 158/522/1102 173/521/1103 13/523/1104
f 188/505/1105 158/522/1106 13/523/1107
f 130/524/1108 158/522/1109 142/525/1110
f 173/521/1111 158/522/1112 157/526/1113
f 157/527/1114 293/528/1115 173/529/1116
f 293/528/1117 157/527/1118 212/6/1119
f 158/522/1120 130/524/1121 157/530/1122
f 212/531/1123 157/530/1124 130/524/1125
f 132/532/1126 212/6/1127 130/533/1128
f 212/6/1129 132/532/1130 256/7/1131
f 220/61/1132 219/70/1133 12/22/1134
f 219/426/1135 183/402/1136 258/383/1137
f 256/7/1138 132/532/1139 219/70/1140
f 282/428/1141 132/534/1142 130/524/1143
f 205/430/1144 183/402/1145 282/428/1146
f 235/535/1147 205/430/1148 282/428/1149
f 243/536/1150 294/537/1151 117/538/1152
f 98/539/1153 117/341/1154 294/540/1155
f 196/541/1156 243/536/1157 19/514/1158
f 196/542/1159 19/543/1160 85/57/1161
f 243/544/1162 196/545/1163 82/546/1164
f 82/547/1165 294/548/1166 243/549/1167
f 294/550/1168 82/551/1169 103/552/1170
f 82/546/1171 196/545/1172 139/553/1173
f 139/553/1174 80/74/1175 82/546/1176
f 80/74/1177 191/73/1178 82/546/1179
f 103/554/1180 122/555/1181 294/556/1182
f 103/557/1183 292/558/1184 122/555/1185
f 280/559/1186 292/560/1187 103/552/1188
f 280/559/1189 61/561/1190 292/560/1191
f 221/562/1192 292/558/1193 204/563/1194
f 133/564/1195 122/555/1196 292/558/1197
f 294/556/1198 122/555/1199 98/539/1200
f 50/327/1201 71/565/1202 117/341/1203
f 262/325/1204 117/341/1205 96/343/1206
f 263/346/1207 107/344/1208 96/343/1209
f 26/312/1210 236/313/1211 204/566/1212
f 26/312/1213 213/264/1214 236/313/1215
f 26/312/1216 204/566/1217 144/567/1218
f 203/252/552 251/262/1219 194/119/550
f 47/568/1220 254/569/1221 92/570/1222
f 254/569/1221 47/568/1220 72/571/1223
f 36/572/1224 238/447/1225 47/446/1226
f 243/573/1227 117/574/1228 71/479/1229
f 19/514/1230 243/536/1231 295/515/1232
f 243/575/1233 71/479/1234 116/576/1235
f 74/577/1236 172/511/1237 295/515/1238
f 137/461/1239 224/578/1240 48/579/1241
f 262/325/1242 137/461/1243 48/579/1244
f 262/325/1245 189/342/1246 137/461/1247
f 59/580/1248 179/581/1249 128/582/1250
f 128/582/1251 202/583/1252 59/580/1253
f 179/584/1254 72/571/1255 128/331/1256
f 72/571/1257 127/332/1258 128/331/1259
f 127/332/1260 72/571/1261 84/585/1262
f 72/571/1263 83/586/1264 84/585/1265
f 179/587/1266 59/588/1267 202/589/1268
f 175/321/1269 179/584/1270 202/322/1271
f 72/571/1272 179/584/1273 175/321/1274
f 175/321/1275 254/569/1276 72/571/1277
f 47/568/1278 105/590/1279 104/591/1280
f 31/337/1281 127/332/1282 84/585/1283
f 134/438/1284 31/337/1285 84/585/1286
f 83/586/1287 81/439/1288 84/585/1289
f 84/585/1290 81/439/1291 134/438/1292
f 79/592/1293 279/593/1294 235/594/1295
f 79/595/1296 235/535/1297 60/501/1298
f 20/502/1299 60/501/1300 65/504/1301
f 235/535/1302 282/428/1303 60/501/1304
f 130/524/1305 142/525/1306 282/428/1307
f 60/501/1308 282/428/1309 65/504/1310
f 282/428/1311 142/525/1312 65/504/1313
f 188/505/1314 265/510/1315 291/503/1316
f 188/505/1317 13/523/1318 265/510/1319
f 142/525/1320 188/505/1321 65/504/1322
f 142/525/1323 158/522/1324 188/505/1325
f 173/521/1326 265/510/1327 13/523/1328
f 279/596/1329 75/429/1330 205/430/1331
f 279/593/1332 205/597/1333 235/594/1334
f 90/598/1335 20/502/1336 264/599/1337
f 264/599/1338 20/502/1339 271/509/1340
f 291/503/1341 271/509/1342 20/502/1343
f 90/598/1344 180/499/1345 20/502/1346
f 178/600/1347 251/601/1348 25/602/1349
f 25/603/1350 251/265/1351 26/312/1352
f 25/603/1353 26/312/1354 191/604/1355
f 178/605/1356 194/119/1357 251/606/1358
f 164/102/1359 194/119/1360 178/607/1361
f 191/608/1362 280/559/1363 82/551/1364
f 191/608/1365 259/609/1366 280/559/1367
f 82/551/1368 280/559/1369 103/552/1370
f 144/610/1371 61/611/1372 280/612/1373
f 280/559/1374 259/609/1375 144/613/1376
f 263/346/1377 204/563/1378 236/614/1379
f 204/563/1380 292/558/1381 61/615/1382
f 144/616/1383 204/563/1384 61/615/1385
f 144/617/1386 259/618/1387 26/619/1388
f 281/620/1389 87/621/1390 67/622/1391
f 284/623/1392 29/624/1393 67/625/1394
f 284/623/1395 30/308/1396 29/624/1397
f 29/624/1398 30/308/1399 287/626/1400
f 67/625/1401 29/624/1402 287/626/1403
f 67/625/1404 287/626/1405 17/374/1406
f 30/308/1407 149/627/1408 287/626/1409
f 287/626/1410 149/627/1411 17/374/1412
f 267/224/1413 149/627/1414 30/308/1415
f 267/224/1416 108/199/1417 149/627/1418
f 58/299/1419 30/308/1420 284/623/1421
f 58/299/1422 241/298/1423 30/308/1424
f 118/300/1425 58/299/1426 284/623/1427
f 284/628/1428 67/629/1429 87/630/1430
f 87/621/1431 281/620/1432 218/631/1433
f 281/632/1434 67/633/1435 66/378/1436
f 281/632/1437 35/634/1438 218/635/1439
f 66/378/1440 35/634/1441 281/632/1442
f 228/636/1443 35/637/1444 66/638/1445
f 35/639/1446 228/379/1447 190/640/1448
f 66/378/1449 67/633/1450 140/372/1451
f 17/374/1452 140/376/1453 67/625/1454
f 64/641/1455 180/642/1456 90/643/1457
f 156/644/1458 134/438/1459 22/436/1460
f 156/644/1461 22/436/1462 168/433/1463
f 279/645/1464 156/644/1465 168/433/1466
f 24/646/1467 97/204/1468 231/647/1469
f 24/646/1470 216/201/1471 97/204/1472
f 225/200/1473 149/627/1474 23/198/1475
f 23/198/1476 149/627/1477 108/199/1478
f 225/200/1479 24/646/1480 149/627/1481
f 24/646/1482 225/200/1483 216/201/1484
f 149/627/1485 24/646/1486 166/648/1487
f 17/374/1488 149/627/1489 166/648/1490
f 17/374/1491 166/648/1492 16/375/1493
f 43/649/1494 16/375/1495 166/648/1496
f 283/650/1497 49/651/1498 114/345/1499
f 190/477/1500 114/345/1501 49/651/1502
f 49/651/1503 35/637/1504 190/477/1505
f 40/349/1506 283/650/1507 114/345/1508
f 40/349/1509 88/357/1510 283/650/1511
f 283/650/1512 218/631/1513 49/651/1514
f 49/651/1515 218/631/1516 35/637/1517
f 218/631/1518 283/650/1519 88/357/1520
f 129/356/1521 218/631/1522 88/357/1523
f 87/621/1524 218/631/1525 129/356/1526
f 248/301/1527 87/652/1528 129/653/1529
f 284/654/1530 87/652/1531 248/301/1532
f 272/58/1533 195/4/1534 62/1/1535
f 85/57/1536 195/4/1537 272/58/1538
f 195/4/1539 85/57/1540 19/543/1541
f 195/4/1542 19/543/1543 255/2/1544
f 31/337/1545 156/644/1546 151/497/1547
f 209/655/1548 261/498/1549 151/497/1550
f 151/497/1551 155/656/1552 209/655/1553
f 151/497/1554 156/644/1555 155/656/1556
f 134/438/1557 156/644/1558 31/337/1559
f 127/332/1560 31/337/1561 217/334/1562
f 196/657/1563 85/57/1564 119/37/1565
f 139/658/1566 196/657/1567 119/37/1568
f 119/37/1569 85/57/1570 120/44/1571
f 44/133/1572 207/174/1573 247/68/1574
f 26/312/1575 259/659/1576 191/604/1577
f 270/660/1578 269/48/1579 120/50/1580
f 168/433/1581 75/661/1582 279/645/1583
f 209/655/1584 155/656/1585 79/662/1586
f 261/500/1587 79/663/1588 60/501/1589
f 51/126/1590 176/109/1591 121/123/1592
f 102/664/1593 249/665/1594 186/437/1595
f 102/442/1596 77/441/1597 249/666/1598
f 78/667/1599 249/666/1600 77/441/1601
f 105/443/1602 102/442/1603 104/668/1604
f 81/439/1605 104/591/1606 102/664/1607
f 31/337/1608 151/497/1609 290/336/1610
f 72/571/1611 47/568/1612 83/586/1613
f 104/591/1614 83/586/1615 47/568/1616
f 81/439/1617 83/586/1618 104/591/1619
f 28/320/1620 202/322/1621 171/324/1622
f 102/664/1623 186/437/1624 81/439/1625
f 209/655/1626 79/662/1627 261/498/1628
f 279/669/1629 155/656/1630 156/644/1631
f 79/670/1632 155/656/1633 279/669/1634
f 161/456/1635 253/671/1636 296/377/1637
f 159/380/1638 99/672/1639 161/456/1640
f 296/377/1641 159/380/1642 161/456/1643
f 38/368/1644 165/367/1645 159/366/1646
f 296/377/1647 253/671/1648 228/379/1649
f 99/672/1650 252/360/1651 161/456/1652
f 14/673/1653 228/674/1654 253/675/1655
f 228/379/1656 14/676/1657 190/640/1658
f 48/473/1659 254/472/1660 175/677/1661
f 108/199/1662 267/224/1663 91/196/1664
f 267/224/1665 110/235/1666 111/233/1667
f 110/235/1668 267/224/1669 30/308/1670
f 231/647/1671 166/648/1672 24/646/1673
f 42/678/1674 166/679/1675 231/680/1676
f 166/679/1677 42/678/1678 43/681/1679
f 43/682/1680 42/683/1681 124/684/1682
f 298/685/1683 124/686/1684 123/687/1685
f 165/367/1686 124/686/1687 99/365/1688
f 124/686/1689 165/367/1690 43/369/1691
f 97/688/1692 210/411/1693 231/689/1694
f 231/647/1695 210/690/1696 18/691/1697
f 160/692/1698 18/412/1699 232/410/1700
f 160/692/1701 232/410/1702 249/666/1703
f 101/408/1704 249/666/1705 232/410/1706
f 249/666/1707 78/667/1708 160/692/1709
f 249/666/1710 101/408/1711 126/407/1712
f 216/201/1713 154/202/1714 97/204/1715
f 86/417/1716 242/192/1717 55/693/1718
f 18/691/1719 123/694/1720 231/647/1721
f 160/692/1722 123/687/1723 18/412/1724
f 124/686/1725 298/685/1726 273/448/1727
f 124/686/1728 273/448/1729 278/363/1730
f 273/448/1731 298/685/1732 143/449/1733
f 298/685/1734 123/687/1735 160/692/1736
f 298/685/1737 160/692/1738 143/449/1739
f 78/667/1740 77/441/1741 160/692/1742
f 77/441/1743 143/449/1744 160/692/1745
f 42/683/1746 231/647/1747 123/694/1748
f 124/686/1749 42/695/1750 123/687/1751
f 27/415/1752 112/409/1753 97/696/1754
f 77/441/1755 208/364/1756 143/449/1757
f 99/365/1758 124/686/1759 278/363/1760
f 221/562/1761 263/346/1762 96/343/1763
f 221/562/1764 204/563/1765 263/346/1766
f 221/562/1767 96/343/1768 117/341/1769
f 292/558/1770 221/562/1771 133/564/1772
f 221/562/1773 122/555/1774 133/564/1775
f 98/539/1776 122/555/1777 221/562/1778
f 221/562/1779 117/341/1780 98/539/1781
f 114/345/1782 189/474/1783 96/343/1784
f 114/345/1785 190/477/1786 189/474/1787
f 50/697/1788 52/698/1789 115/699/1790
f 243/536/1791 116/700/1792 295/515/1793
